<?xml version="1.0" encoding="UTF-8"?>
<svg version="1.1" xmlns="http://www.w3.org/2000/svg" width="1024" height="1024">
<path d="M0 0 C1.21840576 0.01885254 1.21840576 0.01885254 2.46142578 0.03808594 C51.95394194 0.92592533 105.68754902 15.28326876 146 45 C147.11017487 45.78381184 148.2222864 46.56488516 149.3359375 47.34375 C155.73604415 51.83083847 161.95603382 56.43970435 167.953125 61.4609375 C170.31907394 63.43256162 172.70262814 65.36827228 175.109375 67.2890625 C188.29424241 77.86495659 198.80199713 89.56459218 209 103 C209.47115234 103.61955566 209.94230469 104.23911133 210.42773438 104.87744141 C216.00706597 112.25121696 221.27004074 119.70817003 226.0078125 127.66015625 C227.47024894 130.11188793 228.9599571 132.52638839 230.4921875 134.93359375 C231.32822968 136.26816359 232.16416905 137.60279785 233 138.9375 C233.39848145 139.55238281 233.79696289 140.16726563 234.20751953 140.80078125 C236.58939171 144.65724597 237.90578082 147.47738605 237 152 C233.69892534 155.42424909 229.76360137 157.23139227 225.5 159.25 C217.55853536 163.10380628 209.83882146 167.33922042 202.125 171.625 C199.61749022 173.01747326 197.10975328 174.40953496 194.6015625 175.80078125 C193.9742926 176.14872238 193.34702271 176.49666351 192.70074463 176.85514832 C184.91101789 181.1679565 177.06337671 185.37260103 169.21142578 189.57080078 C168.20321777 190.11075684 167.19500977 190.65071289 166.15625 191.20703125 C164.83850586 191.91049683 164.83850586 191.91049683 163.49414062 192.62817383 C161.76599392 193.57868835 160.06572309 194.58100536 158.39086914 195.62255859 C154.82190591 197.6787304 153.04018341 197.93640812 149 197 C146.29049869 193.88106294 144.48196834 190.32923901 142.5625 186.6875 C141.42694987 184.65283772 140.2876612 182.62025716 139.14453125 180.58984375 C138.6026416 179.61515137 138.06075195 178.64045898 137.50244141 177.63623047 C132.18451916 168.30523852 125.12887092 159.74845825 117.30078125 152.40625 C116 151 116 151 115 148 C113.54688391 146.67372219 113.54688391 146.67372219 111.6875 145.4375 C108.03489449 142.82012493 104.64908298 140.00152313 101.25 137.0625 C95.57183176 132.23241079 89.50671858 128.59721027 83 125 C81.2464349 123.92244696 79.49623386 122.8393936 77.75 121.75 C73.62068184 119.25102752 69.57456563 117.52485521 65 116 C65 115.34 65 114.68 65 114 C63.865625 113.773125 62.73125 113.54625 61.5625 113.3125 C57.77565359 112.48339232 54.10172235 111.42924917 50.40234375 110.27319336 C42.86146389 107.93428728 35.33350518 106.15500932 27.5625 104.75 C26.66378174 104.58709473 25.76506348 104.42418945 24.83911133 104.25634766 C-4.33193105 99.19411605 -33.77025418 101.36781537 -62 110 C-62.66918457 110.20431641 -63.33836914 110.40863281 -64.02783203 110.61914062 C-96.50932225 120.89448024 -124.25214686 142.58948845 -144 170 C-144.42474609 170.58040039 -144.84949219 171.16080078 -145.28710938 171.75878906 C-152.61361578 181.8618308 -158.00484814 192.58885308 -163 204 C-163.29922363 204.67063477 -163.59844727 205.34126953 -163.90673828 206.03222656 C-168.22961612 215.79420661 -170.92165335 225.57673681 -173 236 C-173.32291016 237.54494141 -173.32291016 237.54494141 -173.65234375 239.12109375 C-181.34391059 281.39663996 -171.40645098 326.72351377 -147.12109375 362.0390625 C-140.47960485 371.31023853 -133.47161925 379.97612743 -125.63232422 388.27050781 C-123.7798683 390.23323556 -121.9386823 392.20623599 -120.09765625 394.1796875 C-107.44452185 407.90275003 -107.44452185 407.90275003 -93.8125 420.625 C-90.46784538 423.48035645 -87.68577238 426.60089368 -84.84716797 429.95019531 C-83.21329464 431.76330666 -81.58711933 433.27991929 -79.71484375 434.8359375 C-73.55987019 440.1529499 -67.82728726 445.91245769 -62.0612793 451.64355469 C-60.7206412 452.97256639 -59.37552131 454.29707123 -58.02612305 455.6171875 C-56.06098266 457.53981911 -54.10928488 459.47521623 -52.16015625 461.4140625 C-51.25403343 462.29392319 -51.25403343 462.29392319 -50.3296051 463.19155884 C-47.23269889 466.30479844 -45.25344752 468.39704861 -45 473 C-44.01 473 -43.02 473 -42 473 C-42 473.99 -42 474.98 -42 476 C-41.41516846 476.09659912 -40.83033691 476.19319824 -40.2277832 476.29272461 C-37.52649461 477.15032823 -36.33749637 478.30375186 -34.35546875 480.31640625 C-33.67806641 480.99896484 -33.00066406 481.68152344 -32.30273438 482.38476562 C-31.60470703 483.10341797 -30.90667969 483.82207031 -30.1875 484.5625 C-29.50107422 485.25408203 -28.81464844 485.94566406 -28.10742188 486.65820312 C-24.10150517 490.72475812 -20.28266374 494.91131611 -16.55151367 499.23022461 C-14.64010919 501.41051904 -12.63047459 503.46830567 -10.5625 505.5 C-9.88316406 506.1703125 -9.20382812 506.840625 -8.50390625 507.53125 C-8.00761719 508.0159375 -7.51132812 508.500625 -7 509 C-2.90121092 507.38976143 -0.23762713 504.42206141 2.75 501.3125 C6.7906678 497.17760538 10.90002112 493.26764296 15.3203125 489.53515625 C17.01572482 487.98562824 18.39682992 486.36768877 19.8125 484.5625 C20.534375 483.716875 21.25625 482.87125 22 482 C22.99 482 23.98 482 25 482 C25.11102051 481.40219727 25.22204102 480.80439453 25.33642578 480.18847656 C26.42944824 476.58367402 29.24700332 474.32260564 31.875 471.75 C32.41769531 471.19570313 32.96039062 470.64140625 33.51953125 470.0703125 C37.61991995 466 37.61991995 466 41 466 C41 465.01 41 464.02 41 463 C41.66 463 42.32 463 43 463 C43.37125 462.13375 43.37125 462.13375 43.75 461.25 C45.19393699 458.65091342 46.73521987 456.92163162 49 455 C49.99 455 50.98 455 52 455 C52.061875 454.443125 52.12375 453.88625 52.1875 453.3125 C53.09789145 450.72138587 54.38201099 449.45226194 56.36328125 447.6015625 C58.42558352 445.58355789 60.28800375 443.42181341 62.1875 441.25 C66.12839839 436.8354043 70.31753697 432.87728163 74.76953125 428.984375 C76.59107242 427.36380947 78.27444868 425.71541673 79.9375 423.9375 C82 422 82 422 85 422 C85.09587402 421.41444336 85.19174805 420.82888672 85.29052734 420.22558594 C86.15417259 417.51636705 87.31203481 416.35759613 89.3515625 414.390625 C90.03863281 413.71773437 90.72570312 413.04484375 91.43359375 412.3515625 C92.15675781 411.65804688 92.87992188 410.96453125 93.625 410.25 C98.44552662 405.58039227 103.09443704 400.88881379 107.42138672 395.75292969 C109.00687435 393.99236656 110.67002926 392.50125926 112.5 391 C116.47403934 387.6926869 119.71001891 383.97931046 123 380 C123.61222412 379.27224365 123.61222412 379.27224365 124.23681641 378.52978516 C133.67682632 367.27372977 141.86278741 355.21753914 150 343 C154.6889493 343.55619669 158.19924267 344.88182673 162.375 347.0625 C163.43460938 347.61035156 164.49421875 348.15820312 165.5859375 348.72265625 C166.78089844 349.35494141 166.78089844 349.35494141 168 350 C168 350.66 168 351.32 168 352 C168.845625 352.0825 169.69125 352.165 170.5625 352.25 C174.72113491 353.15733853 177.39582699 354.76541273 181 357 C181 357.66 181 358.32 181 359 C182.40572266 359.08314453 182.40572266 359.08314453 183.83984375 359.16796875 C189.27818079 359.95694323 193.79073393 362.72124726 198.5625 365.3125 C199.55886475 365.84359375 200.55522949 366.3746875 201.58178711 366.921875 C204.7273752 368.6033465 207.86401555 370.30069569 211 372 C213.06237702 373.10830179 215.12487484 374.21637883 217.1875 375.32421875 C219.14644994 376.38167103 221.104806 377.44022438 223.0625 378.5 C223.97136963 378.99153564 224.88023926 379.48307129 225.81665039 379.98950195 C230.36389362 382.47351329 234.74688852 385.03888462 239 388 C238.38196822 392.21099618 235.98801466 395.40766431 233.6875 398.875 C233.1006543 399.77412109 233.1006543 399.77412109 232.50195312 400.69140625 C231.71830972 401.88961392 230.9308815 403.08535498 230.13964844 404.27856445 C229.08091542 405.8777775 228.03783513 407.48732309 226.99609375 409.09765625 C224.94171916 412.08474102 222.72876774 414.80621498 220.375 417.5625 C216.81490085 421.76784646 213.38899279 426.04530855 210.0625 430.4375 C206.13262683 435.62037621 202.00385219 440.59482361 197.76733398 445.52905273 C195.42161062 448.27395838 193.17678573 451.02844826 191.125 454 C188.96944974 457.04312978 186.65029794 459.37973376 184 462 C177.05705226 469.21589481 170.38282175 476.59532671 164.1171875 484.41015625 C161.2293651 487.94267701 158.17429204 491.30841632 155.10546875 494.68359375 C151.08059173 499.11170521 147.16250849 503.62998058 143.28515625 508.1875 C138.38425795 513.94264653 133.45821729 519.64910476 128.3125 525.1875 C124.92475627 528.83413376 121.68102204 532.55617401 118.5625 536.4375 C114.71954521 541.21541338 110.63168671 545.68994984 106.44384766 550.16162109 C102.52465269 554.37029497 98.88687721 558.75473134 95.2890625 563.2421875 C92.28642 566.8597056 89.09299931 570.27792593 85.88793945 573.71533203 C82.8060911 577.04703043 79.99944304 580.45564181 77.4140625 584.18359375 C75.47868406 586.66964617 73.24171677 588.78821714 71 591 C66.01289074 596.30086779 61.18618898 601.70253953 56.625 607.375 C52.24055753 612.80891009 47.54499937 617.89826018 42.78515625 623 C40.02333659 625.9621924 37.34697566 628.9902134 34.69921875 632.0546875 C32.70593572 634.3366529 30.66506973 636.57228574 28.625 638.8125 C25.51471149 642.25378205 22.53521688 645.76321298 19.625 649.375 C15.89789987 653.98174788 12.0028085 658.37829174 7.95678711 662.70361328 C4.67798294 666.21343332 1.63166233 669.84509955 -1.26953125 673.671875 C-3 675 -3 675 -5.828125 675.578125 C-10.2306745 674.77568987 -12.18026078 672.2813574 -14.9375 669 C-15.45747559 668.40928711 -15.97745117 667.81857422 -16.51318359 667.20996094 C-18.02516408 665.48668906 -19.51466231 663.74624049 -21 662 C-22.3735047 660.41536936 -23.74818223 658.83175291 -25.125 657.25 C-25.64320313 656.63640625 -26.16140625 656.0228125 -26.6953125 655.390625 C-27.97073611 653.87034042 -27.97073611 653.87034042 -30 653 C-31.01866229 651.34467377 -32.01810813 649.67739862 -33 648 C-33.66 647.34 -34.32 646.68 -35 646 C-35 644.68 -35 643.36 -35 642 C-35.5969165 641.90106445 -36.19383301 641.80212891 -36.80883789 641.70019531 C-39.43317857 640.86157592 -40.3101856 639.89897424 -42.05859375 637.796875 C-42.88520508 636.82041016 -42.88520508 636.82041016 -43.72851562 635.82421875 C-44.29248047 635.13972656 -44.85644531 634.45523438 -45.4375 633.75 C-46.5593832 632.40993698 -47.68305182 631.07136646 -48.80859375 629.734375 C-49.34468262 629.09177734 -49.88077148 628.44917969 -50.43310547 627.78710938 C-52.15007716 625.77082087 -52.15007716 625.77082087 -54.91015625 623.265625 C-57 621 -57 621 -57 617 C-57.58136719 616.91878906 -58.16273438 616.83757813 -58.76171875 616.75390625 C-61.69941159 615.76442158 -62.82392772 614.29867646 -64.8125 611.9375 C-65.51503906 611.11507812 -66.21757812 610.29265625 -66.94140625 609.4453125 C-67.62074219 608.63835938 -68.30007813 607.83140625 -69 607 C-70.08072312 605.76853772 -71.16395899 604.53927493 -72.25 603.3125 C-74.4350844 600.81383857 -76.60067089 598.29953062 -78.75390625 595.7734375 C-83.49305901 590.21586449 -88.24209619 584.68927859 -93.1875 579.3125 C-96.39645044 575.81740111 -99.46065837 572.2571616 -102.4375 568.5625 C-105.70555628 564.51358072 -109.09597688 560.63199998 -112.625 556.8125 C-113.08874023 556.30920166 -113.55248047 555.80590332 -114.03027344 555.28735352 C-116.094836 553.05049917 -118.16753925 550.82200769 -120.25390625 548.60546875 C-120.89199219 547.91066406 -121.53007812 547.21585938 -122.1875 546.5 C-122.73792969 545.9121875 -123.28835938 545.324375 -123.85546875 544.71875 C-125 543 -125 543 -125 539 C-125.57105469 538.92910156 -126.14210938 538.85820313 -126.73046875 538.78515625 C-129.8534603 537.70474093 -131.16806436 535.93235852 -133.3125 533.4375 C-134.10269531 532.52871094 -134.89289063 531.61992188 -135.70703125 530.68359375 C-136.46371094 529.79800781 -137.22039062 528.91242187 -138 528 C-139.16507622 526.6652767 -140.33159897 525.33181377 -141.5 524 C-142.05945313 523.35804688 -142.61890625 522.71609375 -143.1953125 522.0546875 C-147.47082359 517.18689782 -151.82555507 512.38800648 -156.1875 507.59765625 C-160.87922789 502.42837749 -165.4259502 497.15875008 -169.91577148 491.81494141 C-173.40303458 487.67545009 -176.99793929 483.64780664 -180.63671875 479.640625 C-183.90879552 475.98455244 -187.09158855 472.2551348 -190.27709961 468.52368164 C-194.5386456 463.53231319 -198.8330221 458.5703061 -203.13696289 453.61547852 C-206.33250963 449.93345555 -209.50961721 446.23662639 -212.67260742 442.52661133 C-216.77285686 437.71798681 -220.91017241 432.966074 -225.1875 428.3125 C-230.01101553 423.04207728 -234.56858726 417.60329246 -239 412 C-239.78761719 411.00742187 -240.57523437 410.01484375 -241.38671875 408.9921875 C-247.61377022 400.9433375 -253.95716537 392.55082002 -254.0625 382.0625 C-254.51577998 376.05474152 -256.30404812 371.23029502 -258.625 365.75 C-266.69877651 346.53696343 -271.15362535 326.84275735 -274.53857422 306.32470703 C-274.89590282 303.98776067 -274.89590282 303.98776067 -276 302 C-286.2459727 239.61490737 -265.15204167 165.31786531 -228.82202148 114.61987305 C-222.97831184 106.6181487 -216.83268277 99.1786414 -210 92 C-208.82530644 90.67373308 -207.65808238 89.34079607 -206.5 88 C-199.69285924 80.19981753 -192.96426183 72.63455203 -185 66 C-184.09121094 65.20335937 -183.18242187 64.40671875 -182.24609375 63.5859375 C-167.07000043 50.33031335 -150.70766514 39.57389052 -133 30 C-131.91332031 29.40574219 -130.82664062 28.81148437 -129.70703125 28.19921875 C-98.74949461 12 -98.74949461 12 -86 12 C-86 11.34 -86 10.68 -86 10 C-84.8039917 9.76289307 -83.6079834 9.52578613 -82.37573242 9.28149414 C-77.94174989 8.40193347 -73.50827567 7.51983376 -69.07495117 6.63696289 C-67.15549282 6.25508367 -65.23589701 5.87389473 -63.31616211 5.4934082 C-60.55806701 4.9466367 -57.80047452 4.39739111 -55.04296875 3.84765625 C-54.18350143 3.6778273 -53.32403412 3.50799835 -52.43852234 3.33302307 C-51.63791885 3.17293259 -50.83731537 3.0128421 -50.01245117 2.84790039 C-49.3085173 2.70800186 -48.60458344 2.56810333 -47.87931824 2.42396545 C-45.79048799 1.98555355 -45.79048799 1.98555355 -43 1 C-41.1241354 0.84985228 -39.24391582 0.75160812 -37.36328125 0.68359375 C-36.23696289 0.64153809 -35.11064453 0.59948242 -33.95019531 0.55615234 C-32.14953613 0.49741943 -32.14953613 0.49741943 -30.3125 0.4375 C-28.46736816 0.3748999 -28.46736816 0.3748999 -26.58496094 0.31103516 C-17.71676925 0.024776 -8.87241419 -0.19337049 0 0 Z " fill="#1E5A96" transform="translate(518,126)"/>
<path d="M0 0 C22.65287137 -0.53935408 45.576961 5.88325339 62.765625 21.00390625 C65.25697788 23.20867817 65.25697788 23.20867817 68.2734375 25.015625 C84.62678004 36.501393 92.47878334 58.67774357 96.078125 77.4921875 C99.53138381 97.71244604 96.76437274 116.57065917 88.265625 135.1171875 C87.60433594 136.58285156 87.60433594 136.58285156 86.9296875 138.078125 C83.58327023 144.82898989 79.1014324 149.96556379 73.91796875 155.3359375 C71.76719832 157.59123727 69.82700471 159.87093346 67.890625 162.3046875 C53.55139422 178.76571376 30.22112272 185.79998883 9.23046875 187.33984375 C-14.86801992 188.0550247 -38.12896777 181.65045884 -56.734375 166.1171875 C-57.37761719 165.61960937 -58.02085937 165.12203125 -58.68359375 164.609375 C-63.25331821 160.92022625 -66.98181001 156.65903553 -70.671875 152.1171875 C-71.39963135 151.24501587 -71.39963135 151.24501587 -72.14208984 150.35522461 C-75.36226084 146.26887928 -76.4225655 143.31843533 -76.734375 138.1171875 C-77.724375 138.1171875 -78.714375 138.1171875 -79.734375 138.1171875 C-91.09173884 112.86634945 -92.93305044 83.50619414 -83.37890625 57.33203125 C-80.39262109 49.84630304 -76.73012624 43.42203734 -71.734375 37.1171875 C-70.93128906 36.07691406 -70.12820313 35.03664063 -69.30078125 33.96484375 C-53.818349 14.43404218 -32.02992941 3.24248208 -7.296875 0.3046875 C-4.86512086 0.1621364 -2.43378988 0.10430528 0 0 Z " fill="#1F5A95" transform="translate(508.734375,301.8828125)"/>
<path d="M0 0 C3.86175162 3.30885766 5.63690895 7.11980265 7.625 11.6875 C17.20906677 32.75570814 30.26133027 52.19562237 45.640625 69.45507812 C52.03697912 76.72449782 57.97058683 84.42626847 64 92 C63.67 92.66 63.34 93.32 63 94 C58.4990882 91.68827942 55.60287837 88.53539002 52.4375 84.6875 C51.37643538 83.42436718 50.31523354 82.16134962 49.25390625 80.8984375 C48.71523926 80.25229492 48.17657227 79.60615234 47.62158203 78.94042969 C45.06241834 75.87806399 42.47077271 72.84384455 39.875 69.8125 C39.12887451 68.93924072 39.12887451 68.93924072 38.36767578 68.04833984 C35.24623551 64.40887767 32.0573279 60.84319373 28.8125 57.3125 C23.98898447 52.04207728 19.43141274 46.60329246 15 41 C13.81857422 39.51113281 13.81857422 39.51113281 12.61328125 37.9921875 C5.22437437 28.44156736 -0.20188839 20.08940036 -0.0625 7.8125 C-0.05798828 7.06291016 -0.05347656 6.31332031 -0.04882812 5.54101562 C-0.03706354 3.69397617 -0.01912865 1.84697787 0 0 Z " fill="#204670" transform="translate(264,497)"/>
<path d="M0 0 C0.99 0 1.98 0 3 0 C3.15033691 0.58265625 3.30067383 1.1653125 3.45556641 1.765625 C13.03233101 38.59599409 29.35599411 66.82440252 56.06640625 94.16796875 C56.75903564 94.88557373 57.45166504 95.60317871 58.1652832 96.3425293 C59.53703734 97.76215587 60.91948245 99.17154216 62.31323242 100.56958008 C62.93689697 101.21693115 63.56056152 101.86428223 64.203125 102.53125 C64.76676758 103.10423828 65.33041016 103.67722656 65.91113281 104.26757812 C67 106 67 106 66.67480469 108.21679688 C66.45211914 108.80525391 66.22943359 109.39371094 66 110 C55.82877728 101.63699465 47.15583248 92.30210418 39 82 C38.0434962 80.8318329 37.08506091 79.66524544 36.125 78.5 C18.5443213 57.05897616 -0.65580782 28.85554417 0 0 Z " fill="#1F4A79" transform="translate(342,426)"/>
<path d="M0 0 C0.74507813 0.0825 1.49015625 0.165 2.2578125 0.25 C2.2578125 0.91 2.2578125 1.57 2.2578125 2.25 C0.89453125 3.5546875 0.89453125 3.5546875 -1.0546875 5.125 C-15.11449691 17.13390575 -26.90851744 32.68696709 -36.7421875 48.25 C-37.65484375 49.64798828 -37.65484375 49.64798828 -38.5859375 51.07421875 C-46.66893146 63.7453056 -54.0603471 77.32658223 -59.7421875 91.25 C-60.4021875 91.25 -61.0621875 91.25 -61.7421875 91.25 C-61.35599614 83.78363379 -59.37122821 78.46538522 -55.9296875 71.875 C-55.44048828 70.92109375 -54.95128906 69.9671875 -54.44726562 68.984375 C-44.47122401 49.86891025 -32.30600981 33.08989055 -17.7421875 17.25 C-16.54987517 15.90006855 -15.36211876 14.54609483 -14.1796875 13.1875 C-13.62410156 12.55714844 -13.06851563 11.92679688 -12.49609375 11.27734375 C-11.20921667 9.78983995 -9.94995057 8.27833129 -8.70703125 6.75390625 C-8.01738281 5.92761719 -7.32773437 5.10132813 -6.6171875 4.25 C-5.99585938 3.486875 -5.37453125 2.72375 -4.734375 1.9375 C-2.7421875 0.25 -2.7421875 0.25 0 0 Z " fill="#204B78" transform="translate(325.7421875,200.75)"/>
<path d="M0 0 C9.50652134 0.91457639 17.18431771 5.42105933 25.375 9.9375 C26.74027635 10.67495683 28.10615837 11.41129349 29.47265625 12.14648438 C30.78180146 12.85575391 32.09041504 13.56600578 33.3984375 14.27734375 C34.00263519 14.60556625 34.60683289 14.93378876 35.2293396 15.2719574 C38.33394621 16.98619232 41.22715241 18.78624241 44 21 C43.38196822 25.21099618 40.98801466 28.40766431 38.6875 31.875 C38.29626953 32.47441406 37.90503906 33.07382812 37.50195312 33.69140625 C36.71802572 34.89004816 35.93026919 36.08619465 35.13867188 37.27978516 C34.08491434 38.87171817 33.04757271 40.47448469 32.01171875 42.078125 C29.87734543 45.17814683 27.56455932 48.00984777 25.125 50.875 C21.24563154 55.46374689 17.52273478 60.13117957 14 65 C13.01 64.67 12.02 64.34 11 64 C14.7076257 58.14585416 18.76419179 52.58835297 22.9375 47.0625 C24.95953586 44.37590289 26.98002538 41.6881471 29 39 C29.74636719 38.00742187 30.49273438 37.01484375 31.26171875 35.9921875 C31.87660156 35.14914062 32.49148438 34.30609375 33.125 33.4375 C33.64320313 32.73496094 34.16140625 32.03242187 34.6953125 31.30859375 C36.37519221 28.33611199 37.1014831 25.2828588 38 22 C37.02651611 21.51120361 36.05303223 21.02240723 35.05004883 20.51879883 C31.42015725 18.69292108 27.79693791 16.85412743 24.17553711 15.01147461 C22.61090631 14.21760108 21.04451653 13.42718402 19.47631836 12.64038086 C17.21510735 11.50510788 14.96063284 10.35732091 12.70703125 9.20703125 C12.01100296 8.86098343 11.31497467 8.51493561 10.59785461 8.15840149 C6.29870082 5.94487807 3.2435925 3.5951419 0 0 Z " fill="#214C7A" transform="translate(713,493)"/>
<path d="M0 0 C5.72126339 0.03603945 8.33089703 2.706755 12.16601562 6.53125 C12.87435547 7.2634375 13.58269531 7.995625 14.3125 8.75 C15.04017578 9.46671875 15.76785156 10.1834375 16.51757812 10.921875 C22.33746236 16.82311829 22.33746236 16.82311829 23 22 C23.99 22 24.98 22 26 22 C26 22.99 26 23.98 26 25 C26.58483154 25.09659912 27.16966309 25.19319824 27.7722168 25.29272461 C30.47350539 26.15032823 31.66250363 27.30375186 33.64453125 29.31640625 C34.32193359 29.99896484 34.99933594 30.68152344 35.69726562 31.38476562 C36.74430664 32.46274414 36.74430664 32.46274414 37.8125 33.5625 C38.49892578 34.25408203 39.18535156 34.94566406 39.89257812 35.65820312 C43.87018524 39.69601999 47.65124565 43.85626172 51.35473633 48.14526367 C54.21417417 51.36876112 57.31905065 54.32636611 60.43164062 57.3046875 C61.65679491 58.50095465 62.83322875 59.74672311 64 61 C64 61.66 64 62.32 64 63 C60.14116029 62.48138318 58.19051919 61.68726637 55.4765625 58.90234375 C54.53937378 57.95367432 54.53937378 57.95367432 53.58325195 56.98583984 C52.93702881 56.3098877 52.29080566 55.63393555 51.625 54.9375 C50.95235107 54.24865723 50.27970215 53.55981445 49.58666992 52.85009766 C45.86873122 49.02031742 42.23635072 45.13662604 38.77734375 41.0703125 C31.90852458 33.06927039 24.69113043 25.55660855 16.88549805 18.47216797 C12.90343455 14.85407915 9.01227906 11.1591751 5.1875 7.375 C4.66542969 6.86573975 4.14335937 6.35647949 3.60546875 5.83178711 C2.36356079 4.59346482 1.17603026 3.30104969 0 2 C0 1.34 0 0.68 0 0 Z " fill="#214B7B" transform="translate(450,577)"/>
<path d="M0 0 C8.58765461 7.15637884 16.07224367 15.04497165 23.31298828 23.54052734 C24.8119782 25.29857685 26.31195869 27.05577447 27.8125 28.8125 C28.32949463 29.41827881 28.84648926 30.02405762 29.37915039 30.64819336 C32.58430495 34.38995524 35.85173863 38.06076879 39.1875 41.6875 C43.24341372 46.10682359 47.05604505 50.67569233 50.81640625 55.34765625 C53.61657942 58.74893995 56.57068598 61.99335155 59.56640625 65.22265625 C61 67 61 67 61 69 C55.96304685 67.73175428 53.79691428 66.12246262 50.6875 62 C47.00059831 57.25969782 43.15842546 52.7717996 39.1171875 48.33203125 C36.65055947 45.61509964 34.23856956 42.85500288 31.83984375 40.078125 C30.44337252 38.50079444 29.01249379 36.95384575 27.56640625 35.421875 C26.74011719 34.54015625 25.91382813 33.6584375 25.0625 32.75 C24.29035156 31.94046875 23.51820313 31.1309375 22.72265625 30.296875 C21 28 21 28 21 24 C20.42894531 23.92910156 19.85789062 23.85820313 19.26953125 23.78515625 C16.1465397 22.70474093 14.83193564 20.93235852 12.6875 18.4375 C11.90761719 17.53515625 11.12773437 16.6328125 10.32421875 15.703125 C9.17373047 14.36507812 9.17373047 14.36507812 8 13 C7.30519531 12.25234375 6.61039062 11.5046875 5.89453125 10.734375 C4.95673828 9.72117187 4.95673828 9.72117187 4 8.6875 C3.443125 8.09324219 2.88625 7.49898437 2.3125 6.88671875 C0.73751396 4.62267632 0.37301621 2.70903022 0 0 Z " fill="#204876" transform="translate(372,641)"/>
<path d="M0 0 C0.33 0 0.66 0 1 0 C1 21.45 1 42.9 1 65 C-7.90732549 51.63901176 -5.51615766 33.12840914 -4.125 17.9375 C-4.04660889 17.05747314 -3.96821777 16.17744629 -3.88745117 15.27075195 C-2.62787312 2.62787312 -2.62787312 2.62787312 0 0 Z " fill="#1F436C" transform="translate(245,363)"/>
<path d="M0 0 C2 0 2 0 3.37890625 1.31640625 C3.91386719 1.87199219 4.44882812 2.42757813 5 3 C6.30233322 3.99264888 7.61606938 4.97041949 8.9375 5.9375 C20.96666678 15.30000683 29.66941408 26.342308 38 39 C38.7410498 40.11785889 38.7410498 40.11785889 39.49707031 41.25830078 C40.93017026 43.4334911 42.34469284 45.61926945 43.75 47.8125 C44.39606201 48.80781738 44.39606201 48.80781738 45.05517578 49.82324219 C47.20094779 53.25114629 48 54.84894745 48 59 C45.5907673 58.62930007 44.34149447 58.41126648 42.75488281 56.50048828 C42.40780273 55.86353027 42.06072266 55.22657227 41.703125 54.5703125 C41.10745728 53.50889038 41.10745728 53.50889038 40.49975586 52.42602539 C40.08733643 51.66668701 39.67491699 50.90734863 39.25 50.125 C32.646443 38.46086405 25.1360019 27.63100868 15.30078125 18.40625 C14 17 14 17 13 14 C11.2751978 12.47115876 11.2751978 12.47115876 9.1875 11.0625 C1.49246454 5.47739362 1.49246454 5.47739362 0.25 1.75 C0.1675 1.1725 0.085 0.595 0 0 Z " fill="#204976" transform="translate(620,260)"/>
<path d="M0 0 C9.71689866 1.54236487 16.13470315 6.04014456 23.296875 12.60546875 C25.03059565 14.11335695 25.03059565 14.11335695 27.40234375 15.30859375 C30.56230524 17.36613259 32.59675509 19.88646483 34.8125 22.875 C35.45554077 23.73013184 35.45554077 23.73013184 36.11157227 24.60253906 C51.83966647 45.84522529 51.83966647 45.84522529 51 59 C48.48987578 57.74493789 48.35400658 56.90389975 47.30078125 54.3515625 C46.98262451 53.59891113 46.66446777 52.84625977 46.33666992 52.07080078 C45.99869385 51.26368652 45.66071777 50.45657227 45.3125 49.625 C35.8112208 27.74651791 21.38747548 12.73583907 0 2 C0 1.34 0 0.68 0 0 Z " fill="#204C7A" transform="translate(550,312)"/>
<path d="M0 0 C13.13082947 4.59579031 21.66438809 15.34741701 30 26 C31.05906938 27.27499287 32.1217997 28.5469506 33.1875 29.81640625 C34.2917426 31.14837455 35.3959098 32.48040537 36.5 33.8125 C37.02916016 34.43479492 37.55832031 35.05708984 38.10351562 35.69824219 C41.14220435 39.41197382 42.69630323 42.04215017 43 47 C42.34 47 41.68 47 41 47 C39.30269514 44.97114276 37.70685284 42.92882234 36.125 40.8125 C31.30650236 34.51299923 26.15496964 28.67433706 20.71875 22.90625 C18.49225344 20.52620195 16.35426882 18.11186315 14.25 15.625 C10.0586081 10.77613486 5.33188599 6.55459066 0 3 C0 2.01 0 1.02 0 0 Z " fill="#214876" transform="translate(689,193)"/>
<path d="M0 0 C0.99 0 1.98 0 3 0 C1.55151564 5.06578044 -0.65275781 9.14647185 -3.4375 13.5625 C-3.87489502 14.25923828 -4.31229004 14.95597656 -4.76293945 15.67382812 C-9.25323603 22.65714245 -14.48489284 28.81665133 -20 35 C-20.69609375 35.82886719 -21.3921875 36.65773438 -22.109375 37.51171875 C-22.71265625 38.22972656 -23.3159375 38.94773437 -23.9375 39.6875 C-24.44152344 40.28949219 -24.94554687 40.89148438 -25.46484375 41.51171875 C-27.17280558 43.16752907 -28.83156744 44.04926175 -31 45 C-30.47832362 40.97265834 -29.51901892 39.06591778 -26.6875 36.1875 C-22.89366041 32.09503976 -19.46893952 27.83483244 -16.125 23.375 C-15.61678711 22.69783936 -15.10857422 22.02067871 -14.58496094 21.32299805 C-10.55074789 15.87910986 -6.78216709 10.27850326 -3.20947266 4.52099609 C-2.21480288 2.96336938 -1.11563811 1.47340441 0 0 Z " fill="#204C7C" transform="translate(668,469)"/>
<path d="M0 0 C11.31883082 2.07511898 21.19392134 7.00960537 31.4375 12.0625 C32.30221924 12.48595703 33.16693848 12.90941406 34.05786133 13.34570312 C38.40094729 15.52000214 42.45230691 17.61257231 46 21 C46 21.66 46 22.32 46 23 C39.75342288 23.8481774 36.10911801 20.98666994 31.125 17.6875 C25.53575263 14.03516719 20.35102519 11.11941957 14 9 C14 8.34 14 7.68 14 7 C13.38511719 6.86722656 12.77023437 6.73445312 12.13671875 6.59765625 C11.32847656 6.42105469 10.52023437 6.24445313 9.6875 6.0625 C8.88699219 5.88847656 8.08648438 5.71445313 7.26171875 5.53515625 C5 5 5 5 2 4 C2 3.34 2 2.68 2 2 C1.34 2 0.68 2 0 2 C0 1.34 0 0.68 0 0 Z " fill="#204C7A" transform="translate(569,233)"/>
<path d="M0 0 C5.3222294 -0.49103902 7.74535762 0.73828662 12 3.875 C12.55324951 4.27630127 13.10649902 4.67760254 13.67651367 5.09106445 C14.85265138 5.94501331 16.02469292 6.80462824 17.19287109 7.66943359 C19.60768236 9.44742892 22.05634155 11.17560668 24.50537109 12.90600586 C26.28027444 14.1646478 28.04539865 15.43596176 29.80859375 16.7109375 C31.74051247 18.09662216 33.68733416 19.46225998 35.66015625 20.7890625 C36.39105469 21.29179687 37.12195313 21.79453125 37.875 22.3125 C38.49117187 22.72113281 39.10734375 23.12976563 39.7421875 23.55078125 C41 25 41 25 41.1953125 27.66796875 C41.13085938 28.43753906 41.06640625 29.20710938 41 30 C36.20195359 26.9403762 31.63224951 23.76011189 27.25 20.125 C22.47507353 16.23376909 17.41218133 13.06355227 12.140625 9.890625 C9.29326749 8.17654411 6.47675043 6.43187292 3.6875 4.625 C2.61048828 3.93277344 2.61048828 3.93277344 1.51171875 3.2265625 C1.01285156 2.82179687 0.51398437 2.41703125 0 2 C0 1.34 0 0.68 0 0 Z " fill="#204E7E" transform="translate(645,162)"/>
<path d="M0 0 C0.495 1.98 0.495 1.98 1 4 C0.45811035 4.27038086 -0.0837793 4.54076172 -0.64208984 4.81933594 C-11.64746979 10.34867613 -22.21676271 16.12429858 -32.31201172 23.20214844 C-33.00439941 23.68458008 -33.69678711 24.16701172 -34.41015625 24.6640625 C-35.00965088 25.09154785 -35.60914551 25.5190332 -36.22680664 25.95947266 C-38.13599498 27.0798032 -39.83826776 27.5690208 -42 28 C-39.83718367 22.95411062 -36.00891857 20.55920316 -31.6875 17.375 C-30.44359497 16.45436768 -30.44359497 16.45436768 -29.17456055 15.51513672 C-20.09043246 9.01546889 -10.23878537 4.38080443 0 0 Z " fill="#1F4975" transform="translate(443,236)"/>
<path d="M0 0 C0.67998047 0.01313232 1.35996094 0.02626465 2.06054688 0.03979492 C3.5830492 0.07429017 5.10537319 0.11736474 6.62744141 0.16748047 C9.4427625 0.25822799 12.2581146 0.31739936 15.07421875 0.37890625 C17.11204163 0.43798769 19.14980461 0.49917394 21.1875 0.5625 C22.15405518 0.58473633 23.12061035 0.60697266 24.11645508 0.62988281 C30.0968251 0.85967808 34.70159527 1.83697823 40.1875 4.25 C40.1875 4.58 40.1875 4.91 40.1875 5.25 C29.9874525 5.36590963 19.81802057 5.22852555 9.625 4.8125 C8.62726562 4.77326416 7.62953125 4.73402832 6.6015625 4.69360352 C0.75650966 4.43881164 -5.00530924 3.96316378 -10.8125 3.25 C-7.30118361 -0.06091868 -4.73321187 -0.09912486 0 0 Z " fill="#275180" transform="translate(508.8125,125.75)"/>
<path d="M0 0 C0.66 0.33 1.32 0.66 2 1 C0.68898678 5.39613388 -1.04731422 8.96920785 -3.4375 12.875 C-9.53098423 23.11495517 -14.15679651 34.13225855 -19 45 C-19.33 45 -19.66 45 -20 45 C-20.49577745 38.14568004 -18.99155843 33.59037995 -16.0625 27.4375 C-15.661521 26.57141113 -15.26054199 25.70532227 -14.84741211 24.81298828 C-5.91821413 5.91821413 -5.91821413 5.91821413 0 0 Z " fill="#204A78" transform="translate(369,296)"/>
<path d="M0 0 C0 0.66 0 1.32 0 2 C-0.77077881 2.42297363 -1.54155762 2.84594727 -2.33569336 3.28173828 C-5.2393317 4.87766104 -8.14091781 6.4772013 -11.04125977 8.07910156 C-12.2885231 8.7670475 -13.53655014 9.45361094 -14.78540039 10.13867188 C-22.06398039 14.13269411 -29.19685008 18.22123498 -36 23 C-36.66 21.68 -37.32 20.36 -38 19 C-32.81370942 15.79862978 -27.61528489 12.61790753 -22.40332031 9.45849609 C-20.89023886 8.5402567 -19.37891041 7.61911631 -17.87011719 6.69384766 C-16.00451496 5.55314139 -14.12939707 4.43028761 -12.25 3.3125 C-11.18265625 2.66925781 -10.1153125 2.02601563 -9.015625 1.36328125 C-5.73972677 -0.11766238 -3.55238043 -0.28185054 0 0 Z " fill="#224F80" transform="translate(396,153)"/>
<path d="M0 0 C-0.35889127 2.51521587 -0.57323546 3.67510089 -2.63549805 5.24511719 C-3.68797729 5.7657373 -3.68797729 5.7657373 -4.76171875 6.296875 C-5.54466309 6.69471191 -6.32760742 7.09254883 -7.13427734 7.50244141 C-8.39812256 8.11998291 -8.39812256 8.11998291 -9.6875 8.75 C-11.42440986 9.62516178 -13.16007801 10.50279206 -14.89453125 11.3828125 C-15.75771973 11.81883789 -16.6209082 12.25486328 -17.51025391 12.70410156 C-22.16744617 15.12814319 -26.63590228 17.86959826 -31.1171875 20.6015625 C-34.06896401 22.03345409 -35.77344179 22.32146521 -39 22 C-39 21.34 -39 20.68 -39 20 C-35.06308897 17.7906155 -31.12536148 15.58268997 -27.1875 13.375 C-26.08728516 12.75753906 -24.98707031 12.14007813 -23.85351562 11.50390625 C-21.65042307 10.26913461 -19.44583532 9.03702685 -17.23974609 7.80761719 C-15.09789092 6.61256853 -12.96009885 5.41020532 -10.82666016 4.20019531 C-9.84874512 3.65202148 -8.87083008 3.10384766 -7.86328125 2.5390625 C-6.99614502 2.04873535 -6.12900879 1.5584082 -5.2355957 1.05322266 C-3 0 -3 0 0 0 Z " fill="#204A7A" transform="translate(732,288)"/>
<path d="M0 0 C0.9075 0.804375 1.815 1.60875 2.75 2.4375 C12.57240052 10.78654044 22.51965569 17.24414431 34 23 C34 23.66 34 24.32 34 25 C23.74804448 25.61541753 15.51395284 18.27073518 8 12 C6.84371094 11.09701172 6.84371094 11.09701172 5.6640625 10.17578125 C4.56191406 9.28439453 4.56191406 9.28439453 3.4375 8.375 C2.77621094 7.84648437 2.11492187 7.31796875 1.43359375 6.7734375 C-0.45408987 4.43826485 -0.27432361 2.92279337 0 0 Z " fill="#1E4874" transform="translate(444,456)"/>
<path d="M0 0 C2.95321744 1.30941557 4.80961388 2.62052259 6.8828125 5.08984375 C7.40593018 5.7044043 7.92904785 6.31896484 8.46801758 6.95214844 C9.28822388 7.93489746 9.28822388 7.93489746 10.125 8.9375 C11.27596833 10.29673879 12.42832739 11.65480108 13.58203125 13.01171875 C14.1538916 13.68509277 14.72575195 14.3584668 15.31494141 15.05224609 C18.51579057 18.75209753 21.89492248 22.28720006 25.26953125 25.828125 C27 28 27 28 27 31 C22.61338882 30.59194315 20.5531669 27.65499186 17.875 24.5 C14.85026135 20.75640858 14.85026135 20.75640858 11 18 C9.98133771 16.34467377 8.98189187 14.67739862 8 13 C7.34 12.34 6.68 11.68 6 11 C6 9.68 6 8.36 6 7 C5.38125 6.87625 4.7625 6.7525 4.125 6.625 C2 6 2 6 0 4 C0 2.68 0 1.36 0 0 Z " fill="#204772" transform="translate(477,761)"/>
<path d="M0 0 C0 0.66 0 1.32 0 2 C-1.8359375 3.2265625 -1.8359375 3.2265625 -4.375 4.625 C-13.49056051 9.9220535 -21.22214232 16.93605196 -29 24 C-29.33 23.34 -29.66 22.68 -30 22 C-26.57243205 11.71729615 -10.82820028 -0.89833958 0 0 Z " fill="#204D7C" transform="translate(472,313)"/>
<path d="M0 0 C-0.33 0.99 -0.66 1.98 -1 3 C-3.26904297 3.87548828 -3.26904297 3.87548828 -6.2421875 4.5703125 C-7.30824219 4.82683594 -8.37429688 5.08335937 -9.47265625 5.34765625 C-10.59542969 5.60417969 -11.71820313 5.86070312 -12.875 6.125 C-15.08088464 6.64778191 -17.28662074 7.17119109 -19.4921875 7.6953125 C-20.47558105 7.92234863 -21.45897461 8.14938477 -22.47216797 8.38330078 C-25.10062123 8.98778056 -25.10062123 8.98778056 -28 10 C-29.39439664 10.06665376 -30.79169875 10.08538199 -32.1875 10.0625 C-34.0746875 10.0315625 -34.0746875 10.0315625 -36 10 C-33.4296424 6.1444636 -30.67746469 5.66120426 -26.4375 4.4375 C-25.34876587 4.1132605 -25.34876587 4.1132605 -24.23803711 3.7824707 C-22.16282718 3.17241514 -20.08340731 2.58136683 -18 2 C-17.09507812 1.74734375 -16.19015625 1.4946875 -15.2578125 1.234375 C-10.1003653 -0.05039832 -5.30861857 -0.16852757 0 0 Z " fill="#214E7D" transform="translate(484,226)"/>
<path d="M0 0 C4.68003203 1.50276258 6.39257803 5.24929366 8.75 9.25 C9.16121094 9.90613281 9.57242188 10.56226563 9.99609375 11.23828125 C12.40267915 15.25991732 13.72089692 18.1798853 13 23 C10.26513033 26.05661905 8.79836847 26.93974578 4.6875 27.25 C3.800625 27.1675 2.91375 27.085 2 27 C2 26.34 2 25.68 2 25 C4.31 23.68 6.62 22.36 9 21 C8.43410156 19.90300781 7.86820313 18.80601562 7.28515625 17.67578125 C6.54395074 16.22151727 5.80308305 14.76708107 5.0625 13.3125 C4.68931641 12.59126953 4.31613281 11.87003906 3.93164062 11.12695312 C2.06034761 7.43494258 0.51730444 4.16306904 0 0 Z " fill="#244D79" transform="translate(742,255)"/>
<path d="M0 0 C3.00682164 1.3270986 4.87171825 2.69045789 6.98828125 5.1953125 C7.52678711 5.8253418 8.06529297 6.45537109 8.62011719 7.10449219 C9.17860352 7.77125977 9.73708984 8.43802734 10.3125 9.125 C11.4698077 10.48718683 12.62735779 11.84916777 13.78515625 13.2109375 C14.3383252 13.86545898 14.89149414 14.51998047 15.46142578 15.19433594 C17.8597353 18.00898164 20.3396325 20.74949711 22.828125 23.484375 C24 25 24 25 25 28 C20.81905439 26.61872845 18.29295178 24.72530177 15.1875 21.625 C14.00220703 20.46871094 14.00220703 20.46871094 12.79296875 19.2890625 C11 17 11 17 11 13 C10.40574219 12.90203125 9.81148438 12.8040625 9.19921875 12.703125 C5.3372001 11.46837659 3.22237177 8.26819378 1 5 C0.125 2.0625 0.125 2.0625 0 0 Z " fill="#1F4671" transform="translate(450,730)"/>
<path d="M0 0 C0.66 0.33 1.32 0.66 2 1 C-0.37304538 5.93873651 -3.53050033 8.01143662 -8.0625 10.75 C-8.69994141 11.14832031 -9.33738281 11.54664063 -9.99414062 11.95703125 C-15.22669036 15.21014436 -17.79956888 16.1148228 -24 16 C-24 15.34 -24 14.68 -24 14 C-23.18917969 13.57589844 -22.37835937 13.15179688 -21.54296875 12.71484375 C-14.84073219 9.16476501 -8.428912 5.4568304 -2.14453125 1.1875 C-1.43683594 0.795625 -0.72914063 0.40375 0 0 Z " fill="#214B78" transform="translate(570,465)"/>
<path d="M0 0 C2.93169576 1.46584788 3.0650364 3.37773502 4.1640625 6.42578125 C4.56367188 7.53244141 4.96328125 8.63910156 5.375 9.77929688 C5.7875 10.94525391 6.2 12.11121094 6.625 13.3125 C7.25535156 15.0440332 7.25535156 15.0440332 7.8984375 16.81054688 C11 25.48585887 11 25.48585887 11 30 C10.01 30.33 9.02 30.66 8 31 C6.64212587 27.52992738 5.31838145 24.04774826 4 20.5625 C3.6184375 19.58861328 3.236875 18.61472656 2.84375 17.61132812 C0.53067528 11.43624472 -0.4362969 6.59217349 0 0 Z " fill="#1F4977" transform="translate(253,466)"/>
<path d="M0 0 C0.67434586 -0.00191345 1.34869171 -0.0038269 2.04347229 -0.00579834 C3.46819431 -0.00715782 4.89292882 -0.0034779 6.31762695 0.00488281 C8.49263525 0.01556962 10.66681451 0.00498875 12.84179688 -0.0078125 C14.2278664 -0.00649054 15.61393541 -0.00392738 17 0 C18.25868896 0.00225586 19.51737793 0.00451172 20.81420898 0.00683594 C23.84569951 0.24806257 25.52916704 0.66449708 28.06640625 2.265625 C25.19722688 3.70021469 22.72300858 3.39544679 19.51953125 3.3984375 C18.87070984 3.39939423 18.22188843 3.40035095 17.55340576 3.40133667 C16.17818098 3.40201762 14.80295299 3.40016926 13.42773438 3.39599609 C11.33846653 3.39068112 9.24941708 3.39592589 7.16015625 3.40234375 C5.82161411 3.40168228 4.48307211 3.40039969 3.14453125 3.3984375 C1.9318457 3.39730957 0.71916016 3.39618164 -0.53027344 3.39501953 C-3.75292167 3.27249417 -6.77021343 2.87378155 -9.93359375 2.265625 C-6.25110202 -0.18936949 -4.39051279 0.00787586 0 0 Z " fill="#1B4371" transform="translate(502.93359375,222.734375)"/>
<path d="M0 0 C3.07733462 1.34820525 4.93715758 2.77132226 7.09375 5.3359375 C7.64933594 5.98820313 8.20492188 6.64046875 8.77734375 7.3125 C9.34582031 7.993125 9.91429687 8.67375 10.5 9.375 C11.63402869 10.71731967 12.76941089 12.0584972 13.90625 13.3984375 C14.43734375 14.02717773 14.9684375 14.65591797 15.515625 15.30371094 C16.74806312 16.71209582 18.06778872 18.0435208 19.40625 19.3515625 C21 21 21 21 21 23 C19.66666667 22.33333333 18.33333333 21.66666667 17 21 C16.36449219 20.72414063 15.72898437 20.44828125 15.07421875 20.1640625 C12.67884211 18.8197645 11.3245754 17.34984043 9.5625 15.25 C8.66337891 14.18072266 8.66337891 14.18072266 7.74609375 13.08984375 C7.16988281 12.40019531 6.59367187 11.71054687 6 11 C5.49597656 10.44441406 4.99195313 9.88882813 4.47265625 9.31640625 C1.77301218 6.30375997 0.35875568 4.06589766 0 0 Z " fill="#1F4774" transform="translate(350,616)"/>
<path d="M0 0 C0.66 0.33 1.32 0.66 2 1 C-2.96306969 9.86262445 -9.82739351 17.82739351 -17 25 C-17.99 24.67 -18.98 24.34 -20 24 C-16.04632947 18.44935667 -11.71992625 13.37333144 -7.125 8.34375 C-4.66214499 5.6273658 -2.31735929 2.84063397 0 0 Z " fill="#204671" transform="translate(667,622)"/>
<path d="M0 0 C7.36330393 1.09666229 11.22298756 5.54194709 16 11 C18 14 18 14 17.625 16.1875 C17.315625 17.0846875 17.315625 17.0846875 17 18 C11.00040771 13.04381506 5.19144551 7.80773381 0 2 C0 1.34 0 0.68 0 0 Z " fill="#21507F" transform="translate(415,542)"/>
<path d="M0 0 C-0.30200195 1.86621094 -0.30200195 1.86621094 -1 4 C-3.39347159 5.61729029 -5.63475362 6.943381 -8.1875 8.25 C-9.1784668 8.79527344 -9.1784668 8.79527344 -10.18945312 9.3515625 C-14.2874052 11.50369528 -17.26193656 12.442121 -22 12 C-21.890625 10.16015625 -21.890625 10.16015625 -21 8 C-18.234375 6.62109375 -18.234375 6.62109375 -14.75 5.4375 C-11.36282845 4.26884918 -8.33563391 3.20281878 -5.265625 1.34765625 C-3 0 -3 0 0 0 Z " fill="#224C79" transform="translate(690,311)"/>
<path d="M0 0 C0.66 0 1.32 0 2 0 C3.4453125 1.46875 3.4453125 1.46875 5.125 3.5 C8.3071864 7.26925643 11.69593983 10.67892224 15.30078125 14.04296875 C17.20641965 16.23773849 18.0690673 18.26390845 19 21 C12.83485111 18.95942255 9.33265457 14.64604731 5 10 C4.44183594 9.41089844 3.88367188 8.82179688 3.30859375 8.21484375 C0.55945814 5.15241633 0 4.29357388 0 0 Z " fill="#1F4470" transform="translate(329,592)"/>
<path d="M0 0 C9.34929039 0.91806659 16.04699107 4.27118388 24 9 C24 9.66 24 10.32 24 11 C24.66 11 25.32 11 26 11 C26 11.66 26 12.32 26 13 C19.56404235 11.08321013 13.81539951 8.54251139 7.9375 5.3125 C7.16728516 4.89677734 6.39707031 4.48105469 5.60351562 4.05273438 C3.732216 3.0415352 1.86559466 2.02168617 0 1 C0 0.67 0 0.34 0 0 Z " fill="#204B7B" transform="translate(618,149)"/>
<path d="M0 0 C7.40466894 1.10282303 11.10918156 5.61011846 16 11 C15.34 12.32 14.68 13.64 14 15 C3.75285171 6.42585551 3.75285171 6.42585551 0 2 C0 1.34 0 0.68 0 0 Z " fill="#204E81" transform="translate(434,561)"/>
<path d="M0 0 C-1.6055051 4.40726889 -4.94238612 6.839315 -8.4375 9.75 C-9.31631836 10.50990234 -9.31631836 10.50990234 -10.21289062 11.28515625 C-14.62364176 15 -14.62364176 15 -18 15 C-17.10059015 9.05607401 -11.75355436 6.09882032 -7.2421875 2.66015625 C-4.60015988 0.79480509 -3.30317785 0 0 0 Z " fill="#214976" transform="translate(355,177)"/>
<path d="M0 0 C0.99 0.33 1.98 0.66 3 1 C-0.17023562 7.43557831 -3.34933813 13.82195683 -7 20 C-7.66 20 -8.32 20 -9 20 C-9.50911708 14.67447374 -7.93873582 11.49939541 -5.0625 7.1875 C-4.68931641 6.60291016 -4.31613281 6.01832031 -3.93164062 5.41601562 C-1.25687399 1.25687399 -1.25687399 1.25687399 0 0 Z " fill="#1F4877" transform="translate(437,339)"/>
<path d="M0 0 C1.77226453 0.28284018 3.542788 0.57660498 5.3125 0.875 C6.29863281 1.03742188 7.28476562 1.19984375 8.30078125 1.3671875 C11 2 11 2 14 4 C14 4.66 14 5.32 14 6 C16.97 6.495 16.97 6.495 20 7 C20.33 7.99 20.66 8.98 21 10 C21.99 10.33 22.98 10.66 24 11 C23.34 11.66 22.68 12.32 22 13 C14.74 9.04 7.48 5.08 0 1 C0 0.67 0 0.34 0 0 Z " fill="#214E7F" transform="translate(672,472)"/>
<path d="M0 0 C0.66 0 1.32 0 2 0 C1.66075349 7.80266984 -2.27543297 14.72105794 -8 20 C-8.99 19.67 -9.98 19.34 -11 19 C-10.54109375 18.29875 -10.0821875 17.5975 -9.609375 16.875 C-6.05198951 11.37450479 -2.79479035 5.92495554 0 0 Z " fill="#204974" transform="translate(595,432)"/>
<path d="M0 0 C-1.47642627 5.22654901 -4.82231936 8.16826439 -8.625 11.8125 C-9.54152344 12.7087207 -9.54152344 12.7087207 -10.4765625 13.62304688 C-11.97764839 15.08895106 -13.48792862 16.54542993 -15 18 C-15.33 17.01 -15.66 16.02 -16 15 C-13.40337755 10.00231662 -6.04515389 0 0 0 Z " fill="#1E4671" transform="translate(532,619)"/>
<path d="M0 0 C0.66 0.33 1.32 0.66 2 1 C-0.21886329 5.09125955 -2.86015272 8.07157732 -6.1875 11.3125 C-7.08855469 12.19550781 -7.98960937 13.07851563 -8.91796875 13.98828125 C-9.60503906 14.65214844 -10.29210937 15.31601562 -11 16 C-11.99 15.67 -12.98 15.34 -14 15 C-9.96886123 9.12125596 -5.52964597 4.49108302 0 0 Z " fill="#204B7A" transform="translate(396,266)"/>
<path d="M0 0 C0.66 0.33 1.32 0.66 2 1 C1.52590352 5.31730413 -1.03396703 7.33647461 -4.0625 10.25 C-4.98160156 11.14203125 -5.90070312 12.0340625 -6.84765625 12.953125 C-7.55792969 13.62859375 -8.26820313 14.3040625 -9 15 C-9.66 14.34 -10.32 13.68 -11 13 C-7.61227103 8.30840284 -4.21814817 3.9700218 0 0 Z " fill="#23507F" transform="translate(624,524)"/>
<path d="M0 0 C3.61477175 1.49801352 5.68620463 3.57537417 8.25 6.5 C8.95640625 7.2940625 9.6628125 8.088125 10.390625 8.90625 C12 11 12 11 12 13 C6.53561767 11.72921341 4.15818921 9.60193285 1 5 C0.1875 2.125 0.1875 2.125 0 0 Z " fill="#1E436A" transform="translate(421,697)"/>
<path d="M0 0 C0 3 0 3 0 3 Z M-6 6 C-5.01 6.33 -4.02 6.66 -3 7 C-3.721875 7.70125 -4.44375 8.4025 -5.1875 9.125 C-7.12951628 11.05055851 -8.86627213 13.04351011 -10.5625 15.1875 C-12.75254113 17.71447054 -13.95688415 18.84571468 -17 20 C-17.99 20.495 -17.99 20.495 -19 21 C-17.38989473 16.92623969 -14.46177729 14.23492931 -11.375 11.25 C-10.859375 10.74339844 -10.34375 10.23679687 -9.8125 9.71484375 C-8.54616661 8.47196098 -7.2736856 7.23534724 -6 6 Z " fill="#1843A2" transform="translate(597,550)"/>
<path d="M0 0 C3.92488093 3.70060202 7.02215543 7.4906925 10 12 C10 12.66 10 13.32 10 14 C5.12478428 12.60708122 2.80575184 10.16854559 0 6 C-0.3125 2.625 -0.3125 2.625 0 0 Z " fill="#1F4674" transform="translate(433,441)"/>
<path d="M0 0 C5.11100548 2.47806326 8.67074026 6.48103361 12 11 C12 11.66 12 12.32 12 13 C8.86340338 11.57298983 6.37619467 9.85240215 3.75 7.625 C3.04359375 7.03976562 2.3371875 6.45453125 1.609375 5.8515625 C0 4 0 4 0 0 Z " fill="#204671" transform="translate(435,713)"/>
<path d="M0 0 C10.0087222 0.63235935 10.0087222 0.63235935 14 4 C14.625 6.10546875 14.625 6.10546875 15 8 C9.3723345 6.34921812 4.67132966 4.59333051 0 1 C0 0.67 0 0.34 0 0 Z " fill="#1F4D7D" transform="translate(697,485)"/>
<path d="M0 0 C4.78622048 0.35021125 7.79131681 1.86087787 11.6796875 4.453125 C13 6 13 6 13.1953125 8.671875 C13.13085938 9.44015625 13.06640625 10.2084375 13 11 C3.40546697 5.03416856 3.40546697 5.03416856 0 0 Z " fill="#1C456F" transform="translate(673,181)"/>
<path d="M0 0 C2.125 0.375 2.125 0.375 4 1 C3.07456291 2.34173403 2.13422595 3.67320159 1.1875 5 C0.40439453 6.11375 0.40439453 6.11375 -0.39453125 7.25 C-0.92433594 7.8275 -1.45414063 8.405 -2 9 C-2.99 9 -3.98 9 -5 9 C-5.33 9.99 -5.66 10.98 -6 12 C-6.66 11.67 -7.32 11.34 -8 11 C-7.34 9.35 -6.68 7.7 -6 6 C-5.01 6 -4.02 6 -3 6 C-2.814375 5.071875 -2.814375 5.071875 -2.625 4.125 C-2 2 -2 2 0 0 Z " fill="#214E7D" transform="translate(573,575)"/>
<path d="M0 0 C0 2 0 2 -1.390625 3.54296875 C-2.00421875 4.08566406 -2.6178125 4.62835937 -3.25 5.1875 C-3.85328125 5.73792969 -4.4565625 6.28835938 -5.078125 6.85546875 C-7 8 -7 8 -9.234375 7.67578125 C-9.81703125 7.45277344 -10.3996875 7.22976563 -11 7 C-8.38092426 1.15744643 -6.57566735 -0.43837782 0 0 Z " fill="#24538D" transform="translate(637,516)"/>
<path d="M0 0 C2.0625 0.4375 2.0625 0.4375 4 1 C0.6189962 5.13621084 -2.66590534 8.81316569 -7 12 C-7 10.02 -7 8.04 -7 6 C-5.35 5.67 -3.7 5.34 -2 5 C-1.855625 4.360625 -1.71125 3.72125 -1.5625 3.0625 C-1 1 -1 1 0 0 Z " fill="#1F4F7C" transform="translate(605,543)"/>
<path d="M0 0 C0 0.66 0 1.32 0 2 C-1.76755526 2.84026396 -3.53917263 3.67198722 -5.3125 4.5 C-6.79169922 5.19609375 -6.79169922 5.19609375 -8.30078125 5.90625 C-11 7 -11 7 -14 7 C-14 6.01 -14 5.02 -14 4 C-9.22642128 1.28608722 -5.65611463 -0.56561146 0 0 Z " fill="#224C7A" transform="translate(412,146)"/>
<path d="M0 0 C0.99 0 1.98 0 3 0 C1.64763423 2.93879484 0.10057341 5.29232911 -2 7.75 C-2.515625 8.36359375 -3.03125 8.9771875 -3.5625 9.609375 C-5 11 -5 11 -7 11 C-7.33 11.99 -7.66 12.98 -8 14 C-8.66 13.34 -9.32 12.68 -10 12 C-5.42105263 4.89473684 -5.42105263 4.89473684 -3 3 C-2.01 3 -1.02 3 0 3 C0 2.01 0 1.02 0 0 Z " fill="#224D7D" transform="translate(559,589)"/>
<path d="M0 0 C4.40287778 1.34532377 6.54758631 3.09430413 9 7 C9.25 9.8125 9.25 9.8125 9 12 C5.37648747 10.79216249 4.84784764 9.70346858 2.8125 6.5625 C2.28269531 5.75941406 1.75289062 4.95632812 1.20703125 4.12890625 C0 2 0 2 0 0 Z " fill="#1D4774" transform="translate(732,241)"/>
<path d="M0 0 C4.15073369 5.2083179 5.323355 10.37122245 5 17 C4.34 17 3.68 17 3 17 C1.25314692 13.17254549 0.65113667 9.87557277 0.375 5.6875 C0.26285156 4.08455078 0.26285156 4.08455078 0.1484375 2.44921875 C0.09945312 1.64097656 0.05046875 0.83273437 0 0 Z " fill="#1E4672" transform="translate(248,445)"/>
<path d="M0 0 C0.66 0 1.32 0 2 0 C1.67566492 5.35152885 -1.49704824 8.28280043 -5 12 C-5.99 11.67 -6.98 11.34 -8 11 C-7.59007812 10.45730469 -7.18015625 9.91460938 -6.7578125 9.35546875 C-6.21898437 8.64003906 -5.68015625 7.92460938 -5.125 7.1875 C-4.59132813 6.47980469 -4.05765625 5.77210938 -3.5078125 5.04296875 C-2.29185219 3.39543703 -1.13583859 1.70375789 0 0 Z " fill="#214D7B" transform="translate(721,559)"/>
<path d="M0 0 C1.04220703 0.19529297 1.04220703 0.19529297 2.10546875 0.39453125 C1.10546875 2.39453125 1.10546875 2.39453125 -0.56640625 3.13671875 C-4.01040107 4.99740052 -6.43573075 7.72648575 -9.14453125 10.51953125 C-9.69882812 11.08285156 -10.253125 11.64617187 -10.82421875 12.2265625 C-12.1855761 13.61139153 -13.54067984 15.00236329 -14.89453125 16.39453125 C-14.89453125 11.94916522 -12.07514673 9.81051377 -9.20703125 6.70703125 C-8.67658203 6.10052734 -8.14613281 5.49402344 -7.59960938 4.86914062 C-3.5835638 0.48844797 -3.5835638 0.48844797 0 0 Z " fill="#1C4F83" transform="translate(325.89453125,200.60546875)"/>
<path d="M0 0 C0.33 0 0.66 0 1 0 C1.38730126 3.38888605 1.17469717 4.73795424 -0.75 7.625 C-2.72717174 9.71201461 -4.62776579 11.39026964 -7 13 C-7.66 12.34 -8.32 11.68 -9 11 C-7.52444734 9.16375669 -6.04446569 7.3310715 -4.5625 5.5 C-3.73878906 4.4790625 -2.91507813 3.458125 -2.06640625 2.40625 C-1.38449219 1.6121875 -0.70257812 0.818125 0 0 Z " fill="#1E456F" transform="translate(597,702)"/>
<path d="M0 0 C0.66 0 1.32 0 2 0 C1.58578031 4.83256305 -0.46413986 6.82679218 -4 10 C-4.99 9.67 -5.98 9.34 -7 9 C-6.02180976 7.68677212 -5.0424189 6.37443848 -4.0625 5.0625 C-3.51722656 4.33160156 -2.97195313 3.60070312 -2.41015625 2.84765625 C-1 1 -1 1 0 0 Z " fill="#234871" transform="translate(709,574)"/>
<path d="M0 0 C0.66 0.33 1.32 0.66 2 1 C0.3619751 4.51005335 -1.03134491 7.45543849 -4 10 C-4.99 9.67 -5.98 9.34 -7 9 C-2.85714286 2.57142857 -2.85714286 2.57142857 0 0 Z " fill="#214876" transform="translate(565,739)"/>
<path d="M0 0 C2.64 0.33 5.28 0.66 8 1 C8.33 1.99 8.66 2.98 9 4 C9.99 4.33 10.98 4.66 12 5 C11.34 5.66 10.68 6.32 10 7 C8.51719804 6.21516341 7.0388502 5.42190666 5.5625 4.625 C4.73878906 4.18414062 3.91507813 3.74328125 3.06640625 3.2890625 C1 2 1 2 0 0 Z " fill="#1D4976" transform="translate(684,478)"/>
<path d="M0 0 C0.33 0 0.66 0 1 0 C1.2358396 5.77807024 0.86783046 10.51324804 -1 16 C-1.33 16 -1.66 16 -2 16 C-2.05402274 13.89611431 -2.09280256 11.79183286 -2.125 9.6875 C-2.14820313 8.51574219 -2.17140625 7.34398437 -2.1953125 6.13671875 C-2 3 -2 3 0 0 Z " fill="#1E436D" transform="translate(248,346)"/>
<path d="M0 0 C1.50539661 0.94983358 3.00420347 1.91011891 4.5 2.875 C5.75296875 3.67550781 5.75296875 3.67550781 7.03125 4.4921875 C7.6809375 4.98976563 8.330625 5.48734375 9 6 C9 6.66 9 7.32 9 8 C5.68847126 8.36794764 4.39390748 8.29809215 1.6875 6.25 C0 4 0 4 0 0 Z " fill="#214771" transform="translate(505,793)"/>
<path d="M0 0 C0.66 0.33 1.32 0.66 2 1 C0.3619751 4.51005335 -1.03134491 7.45543849 -4 10 C-4.99 9.67 -5.98 9.34 -7 9 C-6.02180976 7.68677212 -5.0424189 6.37443848 -4.0625 5.0625 C-3.51722656 4.33160156 -2.97195313 3.60070312 -2.41015625 2.84765625 C-1 1 -1 1 0 0 Z " fill="#1E4471" transform="translate(640,653)"/>
<path d="M0 0 C0.99 0.33 1.98 0.66 3 1 C3 1.99 3 2.98 3 4 C1.02 4.99 -0.96 5.98 -3 7 C-3.99 6.01 -4.98 5.02 -6 4 C-3.1875 1.9375 -3.1875 1.9375 0 0 Z " fill="#214F7D" transform="translate(424,245)"/>
<path d="M0 0 C0.99 0.33 1.98 0.66 3 1 C1.92598892 3.91517292 1.22189824 5.77810176 -1 8 C-2.32 7.67 -3.64 7.34 -5 7 C-3.35 4.69 -1.7 2.38 0 0 Z " fill="#204D79" transform="translate(674,613)"/>
<path d="M0 0 C0.75 1.6875 0.75 1.6875 1 4 C-0.9375 6.75 -0.9375 6.75 -3 9 C-4.32 8.67 -5.64 8.34 -7 8 C-6.02133662 6.85373678 -5.04205413 5.70800212 -4.0625 4.5625 C-3.51722656 3.92441406 -2.97195313 3.28632812 -2.41015625 2.62890625 C-1.63204305 1.73008851 -0.84063472 0.84063472 0 0 Z " fill="#1E4579" transform="translate(698,587)"/>
<path d="M0 0 C0.99 0.33 1.98 0.66 3 1 C-0.3 4.3 -3.6 7.6 -7 11 C-7.33 10.01 -7.66 9.02 -8 8 C-5.36 5.36 -2.72 2.72 0 0 Z " fill="#244F7E" transform="translate(592,558)"/>
<path d="M0 0 C0.66 1.32 1.32 2.64 2 4 C0.35 5.65 -1.3 7.3 -3 9 C-3.99 8.67 -4.98 8.34 -6 8 C-4.02 5.36 -2.04 2.72 0 0 Z " fill="#204670" transform="translate(527,782)"/>
<path d="M0 0 C2.875 -0.125 2.875 -0.125 6 0 C6.66 0.66 7.32 1.32 8 2 C4.5647952 4.29013653 3.014669 4.17842973 -1 4 C-0.67 2.68 -0.34 1.36 0 0 Z " fill="#284F82" transform="translate(669,319)"/>
<path d="M0 0 C2.0625 0.4375 2.0625 0.4375 4 1 C2.35 2.98 0.7 4.96 -1 7 C-1.99 6.67 -2.98 6.34 -4 6 C-1.125 1.125 -1.125 1.125 0 0 Z " fill="#204976" transform="translate(332,193)"/>
<path d="M0 0 C-2.06756277 2.7972908 -3.14440371 3.02692273 -6.6875 3.6875 C-7.780625 3.790625 -8.87375 3.89375 -10 4 C-10 3.01 -10 2.02 -10 1 C-6.52674819 -0.1577506 -3.63932552 -0.06866652 0 0 Z " fill="#214B78" transform="translate(424,142)"/>
<path d="M0 0 C0.66 0 1.32 0 2 0 C1.71890887 1.64767247 1.42481474 3.29313145 1.125 4.9375 C0.96257812 5.85402344 0.80015625 6.77054687 0.6328125 7.71484375 C0.42398437 8.46894531 0.21515625 9.22304688 0 10 C-0.99 10.495 -0.99 10.495 -2 11 C-2.33 8.69 -2.66 6.38 -3 4 C-2.34 4 -1.68 4 -1 4 C-0.67 2.68 -0.34 1.36 0 0 Z " fill="#1F4A79" transform="translate(260,299)"/>
<path d="M0 0 C5.95703125 -0.29296875 5.95703125 -0.29296875 8 0 C8.99 0.99 9.98 1.98 11 3 C7.7 3 4.4 3 1 3 C0.67 2.01 0.34 1.02 0 0 Z " fill="#1F4978" transform="translate(551,228)"/>
<path d="M0 0 C-0.54087318 3.78611227 -2.11722332 5.55400767 -5 8 C-5.66 8 -6.32 8 -7 8 C-6.44414399 4.1090079 -4.34122117 0 0 0 Z " fill="#234A76" transform="translate(625,673)"/>
<path d="M0 0 C0 0.99 0 1.98 0 3 C-1.98 3.99 -3.96 4.98 -6 6 C-6.33 4.68 -6.66 3.36 -7 2 C-4 0 -4 0 0 0 Z " fill="#1D4774" transform="translate(365,170)"/>
<path d="M0 0 C0.66 1.32 1.32 2.64 2 4 C0.68 5.32 -0.64 6.64 -2 8 C-2.99 7.67 -3.98 7.34 -5 7 C-3.35 4.69 -1.7 2.38 0 0 Z " fill="#1D4471" transform="translate(547,759)"/>
<path d="M0 0 C3.00617269 3.00617269 2.59585316 5.82381598 3 10 C2.01 10 1.02 10 0 10 C0 6.7 0 3.4 0 0 Z " fill="#214A78" transform="translate(423,415)"/>
<path d="M0 0 C0 0.66 0 1.32 0 2 C-2.3125 3.6875 -2.3125 3.6875 -5 5 C-5.99 4.67 -6.98 4.34 -8 4 C-3.375 0 -3.375 0 0 0 Z " fill="#214C79" transform="translate(472,313)"/>
</svg>
