<?xml version="1.0" encoding="UTF-8"?>
<svg version="1.1" xmlns="http://www.w3.org/2000/svg" width="1024" height="1024">
<path d="M0 0 C0.81291504 0.01256836 1.62583008 0.02513672 2.46337891 0.03808594 C33.24497213 0.62876464 63.28947614 7.03755421 92 18 C93.1034375 18.42023438 94.206875 18.84046875 95.34375 19.2734375 C101.82567161 21.86969105 108.03691061 24.95736958 114.25927734 28.11328125 C119.10927615 30.57303289 124.00479398 32.84689396 129 35 C131 36 131 36 133.27734375 37.83203125 C135.95415004 39.96349106 138.69330552 41.82545134 141.5625 43.6875 C162.65997624 57.64906516 182.73194913 74.53475994 199 94 C199.42265137 94.50354004 199.84530273 95.00708008 200.28076172 95.52587891 C211.22623486 108.64292173 220.57633453 122.63080416 229.1875 137.375 C229.65744385 138.17776367 230.1273877 138.98052734 230.61157227 139.80761719 C231.04268311 140.55946289 231.47379395 141.31130859 231.91796875 142.0859375 C232.29719482 142.7464209 232.6764209 143.4069043 233.06713867 144.08740234 C234.02153584 146.04415382 234.55221398 147.87486368 235 150 C231.91060167 152.49216381 228.76669024 154.17146433 225.1875 155.875 C218.57630035 159.09138046 212.19546613 162.66727911 205.8125 166.3125 C198.00075975 170.76864464 190.14820318 175.10071302 182.16479492 179.24121094 C177.77877788 181.52099067 173.42930654 183.85401026 169.10546875 186.25 C168.11039307 186.80034912 167.11531738 187.35069824 166.09008789 187.91772461 C164.15516254 188.99105455 162.22320397 190.06975541 160.29467773 191.15454102 C158.97705444 191.88435181 158.97705444 191.88435181 157.6328125 192.62890625 C156.85824707 193.06275635 156.08368164 193.49660645 155.28564453 193.94360352 C152.85978706 195.06480468 150.63144769 195.58118885 148 196 C147.3709375 194.83984375 146.741875 193.6796875 146.09375 192.484375 C137.520067 176.7842076 128.4628783 161.62656967 115.21484375 149.33984375 C114 148 114 148 114 146 C113.41605469 145.73960937 112.83210938 145.47921875 112.23046875 145.2109375 C109.85140996 143.9193294 108.26133899 142.49873161 106.3125 140.625 C96.74331544 131.99550623 85.98754785 124.79247561 74.625 118.75 C73.90570312 118.367229 73.18640625 117.98445801 72.4453125 117.59008789 C68.43149994 115.52709396 68.43149994 115.52709396 64 115 C63.67 114.34 63.34 113.68 63 113 C60.90446634 112.02957017 60.90446634 112.02957017 58.3203125 111.1953125 C57.33861084 110.86096191 56.35690918 110.52661133 55.34545898 110.18212891 C7.68452969 94.53723285 -42.60761 94.92040493 -88.171875 117.50390625 C-104.77333827 126.10301982 -121.09267159 137.56044625 -133.2265625 151.91796875 C-134.42149215 153.32082668 -135.6465867 154.69847329 -136.8984375 156.05078125 C-142.63600312 162.25324843 -147.32408384 168.99462743 -152 176 C-152.58523438 176.8146875 -153.17046875 177.629375 -153.7734375 178.46875 C-176.87578083 211.87495539 -183.43847342 259.15972044 -176.4296875 298.45898438 C-171.53672046 323.1258228 -161.40586473 347.0781304 -146 367 C-145.27425781 367.99128906 -144.54851562 368.98257812 -143.80078125 370.00390625 C-139.2676323 376.11054491 -134.47827041 381.79428932 -129.26342773 387.32080078 C-128.61420821 388.01065126 -127.96498869 388.70050175 -127.29609585 389.41125679 C-120.24380148 396.86231156 -112.99079759 404.10867291 -105.70955086 411.33504868 C-103.28170883 413.74515311 -100.85772529 416.15908162 -98.43467712 418.57400513 C-91.55919253 425.42530403 -84.67767523 432.27052208 -77.79223633 439.11181641 C-73.54976054 443.32761182 -69.31208829 447.54818569 -65.07739067 451.77179337 C-63.46883414 453.37413438 -61.85838169 454.97457443 -60.24601936 456.57308578 C-58.0111479 458.78887747 -55.78237879 461.01063554 -53.55493164 463.23388672 C-52.88654266 463.8935141 -52.21815369 464.55314148 -51.5295105 465.23275757 C-47 469.77209759 -47 469.77209759 -47 472 C-46.01 472.33 -45.02 472.66 -44 473 C-44 473.66 -44 474.32 -44 475 C-43.34 475 -42.68 475 -42 475 C-40.37890625 476.6796875 -40.37890625 476.6796875 -38.5625 478.875 C-36.41599116 481.46193722 -34.83223438 483.11184374 -32 485 C-30.59967783 486.6337092 -29.20183225 488.26963567 -27.81933594 489.91845703 C-24.29259622 493.95347888 -20.43233671 497.66963328 -16.625 501.4375 C-15.37783203 502.67790039 -15.37783203 502.67790039 -14.10546875 503.94335938 C-12.0725896 505.96455531 -10.03740037 507.98336335 -8 510 C-3.22592451 506.02220224 1.26603679 501.86424613 5.625 497.4375 C6.44484375 496.61088867 6.44484375 496.61088867 7.28125 495.76757812 C8.35221237 494.68764836 9.42184043 493.60639337 10.48999023 492.52368164 C11.90390818 491.09696185 13.33231657 489.68464362 14.76171875 488.2734375 C17.09017561 485.99655169 17.09017561 485.99655169 19.1875 483.1875 C19.785625 482.465625 20.38375 481.74375 21 481 C21.66 481 22.32 481 23 481 C23.309375 480.1646875 23.309375 480.1646875 23.625 479.3125 C25.15508893 476.73916861 27.00795452 475.26949645 29.34375 473.4375 C31.77388341 471.3283276 33.70799607 468.87083291 35.703125 466.35546875 C36.13109375 465.90816406 36.5590625 465.46085937 37 465 C37.66 465 38.32 465 39 465 C39 464.34 39 463.68 39 463 C39.66 463 40.32 463 41 463 C41.2475 462.38125 41.495 461.7625 41.75 461.125 C43.22770762 458.61289704 44.43955177 458.23892656 47 457 C47.33 456.01 47.66 455.02 48 454 C48.66 454 49.32 454 50 454 C50.268125 453.360625 50.53625 452.72125 50.8125 452.0625 C52 450 52 450 55 449 C55.68094079 447.67389975 56.34486922 446.33903916 57 445 C58.42631077 443.4117272 59.91033304 441.87451157 61.4296875 440.375 C62.30753906 439.50359375 63.18539063 438.6321875 64.08984375 437.734375 C65.00894531 436.83203125 65.92804688 435.9296875 66.875 435 C67.78636719 434.09765625 68.69773437 433.1953125 69.63671875 432.265625 C71.33611431 430.58364637 73.03755649 428.90373122 74.74169922 427.2265625 C76.24268006 425.74667652 77.71884393 424.24117534 79.16845703 422.7109375 C81 421 81 421 83 421 C83.3403125 420.1646875 83.3403125 420.1646875 83.6875 419.3125 C85.37656816 416.33652277 87.545454 414.39500233 90 412 C91.08008274 410.93677978 92.159643 409.87302862 93.23876953 408.80883789 C94.1159111 407.94622093 94.1159111 407.94622093 95.01077271 407.06617737 C97.68541605 404.43227958 100.35161009 401.78989178 103.01757812 399.1472168 C104.40904336 397.77074302 105.80320118 396.39698517 107.20019531 395.02612305 C123.47031068 379.05137166 137.0370472 361.41008898 149 342 C151.64942024 343.11711744 154.29436488 344.24319023 156.9375 345.375 C157.69224609 345.69210937 158.44699219 346.00921875 159.22460938 346.3359375 C164.88671875 348.7734375 164.88671875 348.7734375 166 351 C167.64232772 351.72455635 169.31624835 352.37774395 171 353 C177.83355177 355.66710354 177.83355177 355.66710354 179 358 C180.98960407 358.69707969 182.99173729 359.35865351 185 360 C186.9254658 360.90553091 188.83146028 361.85331738 190.71875 362.8359375 C191.80607422 363.40014404 192.89339844 363.96435059 194.01367188 364.5456543 C195.7394043 365.45118042 195.7394043 365.45118042 197.5 366.375 C198.69852837 367.00113325 199.89709653 367.62719033 201.09570312 368.25317383 C208.922857 372.34937649 216.72675066 376.48989287 224.5 380.6875 C225.87768555 381.42589111 225.87768555 381.42589111 227.28320312 382.17919922 C228.12818359 382.63955566 228.97316406 383.09991211 229.84375 383.57421875 C230.57787109 383.97213623 231.31199219 384.37005371 232.06835938 384.7800293 C234.00543851 386.00343481 235.4534887 387.31862561 237 389 C236.15695312 389.76957031 236.15695312 389.76957031 235.296875 390.5546875 C232.51128303 393.52030072 230.42003083 396.6967754 228.25 400.125 C227.83878906 400.75792969 227.42757813 401.39085937 227.00390625 402.04296875 C224.75173582 405.26412814 224.75173582 405.26412814 224 409 C222.34936488 410.68254547 220.67960878 412.34637673 219 414 C217.48922258 415.89185008 216.01192033 417.81074091 214.5625 419.75 C204.78957014 432.65199018 194.27683646 444.95460058 183.62646484 457.13525391 C181.94955603 459.05783414 180.28034795 460.98685016 178.61328125 462.91796875 C173.8735787 468.40734258 169.13142692 473.88551521 164.25 479.25 C161.28032028 482.52149835 158.45660445 485.86969572 155.6875 489.3125 C151.79679292 494.12665588 147.66999534 498.64924334 143.44213867 503.16333008 C140.32475274 506.51064243 137.36440833 509.92986788 134.5 513.5 C131.15698041 517.6666621 127.64884863 521.60419812 124 525.5 C119.54125556 530.26088994 115.3620217 535.1646782 111.27734375 540.25390625 C108.78173531 543.26319052 106.16234857 546.13938654 103.5 549 C100.02580757 552.73327255 96.6993129 556.52371111 93.5 560.5 C89.38347389 565.61245985 85.0077116 570.42576554 80.55078125 575.23828125 C76.32666728 579.81170939 72.26567752 584.51670681 68.22265625 589.25 C62.88551773 595.49685865 57.51771356 601.69987147 52 607.7890625 C48.01910066 612.18982232 44.13027993 616.6678627 40.28515625 621.1875 C34.94341128 627.46033472 29.53835454 633.63922067 23.93017578 639.67529297 C21.03251776 642.81503117 18.29653427 646.04166489 15.625 649.375 C11.48579304 654.52468244 7.05334843 659.3450539 2.51611328 664.14208984 C-0.4824748 667.32024507 -3.32315984 670.53890401 -6 674 C-9.26541308 673.70469308 -10.68902762 673.31276301 -13.03515625 670.953125 C-13.70417969 670.06109375 -14.37320312 669.1690625 -15.0625 668.25 C-19.06023169 663.11388575 -23.29167072 658.33213903 -27.75024414 653.59277344 C-37 643.7259527 -37 643.7259527 -37 641 C-37.66 641 -38.32 641 -39 641 C-40.37212301 639.46804728 -41.6715446 637.87078919 -42.9375 636.25 C-46.92771453 631.23948632 -51.12098493 626.51710299 -55.54467773 621.88574219 C-59 618.21110302 -59 618.21110302 -59 616 C-59.66 616 -60.32 616 -61 616 C-62.37212301 614.46804728 -63.6715446 612.87078919 -64.9375 611.25 C-68.32074105 607.01416049 -71.80093956 602.96138218 -75.5 599 C-79.77001988 594.41321745 -83.75764535 589.66549793 -87.6875 584.78125 C-90.64242253 581.22735668 -93.77044569 577.85815456 -96.91845703 574.47607422 C-99.86931892 571.28675885 -102.65992988 568.01635132 -105.375 564.625 C-109.51420696 559.47531756 -113.94665157 554.6549461 -118.48388672 549.85791016 C-127 540.83181881 -127 540.83181881 -127 538 C-127.99 537.67 -128.98 537.34 -130 537 C-131.39589947 535.44996996 -132.71887019 533.83365761 -134 532.1875 C-137.40595164 527.91619257 -140.90989064 523.81702372 -144.625 519.8125 C-148.21242728 515.9418386 -151.74495467 512.03700344 -155.19921875 508.046875 C-157.38775665 505.55925274 -159.63239191 503.12646548 -161.875 500.6875 C-165.9958725 496.17445987 -169.87282517 491.5152819 -173.7109375 486.76171875 C-176.90747174 482.90514928 -180.28446754 479.22780376 -183.671875 475.5390625 C-189.898946 468.74779379 -195.84349204 461.70363391 -201.828125 454.69921875 C-203.86716499 452.31513925 -205.91871722 449.94307537 -207.984375 447.58203125 C-219.92280531 433.89636912 -230.83297186 419.69899961 -240 404 C-240.4134668 403.29262695 -240.82693359 402.58525391 -241.25292969 401.85644531 C-244.28176437 396.62990121 -247.17876632 391.34121505 -250 386 C-250.3801123 385.28602051 -250.76022461 384.57204102 -251.15185547 383.83642578 C-263.8733761 359.59102876 -271.73431529 332.07853821 -275.640625 305.046875 C-275.90954758 302.9427339 -275.90954758 302.9427339 -277 301 C-277.16813867 298.7780085 -277.27419484 296.55121922 -277.3515625 294.32421875 C-277.37530441 293.65181656 -277.39904633 292.97941437 -277.42350769 292.28663635 C-277.49779641 290.08708139 -277.56291424 287.88743206 -277.625 285.6875 C-277.64646088 284.93537231 -277.66792175 284.18324463 -277.69003296 283.4083252 C-279.14336873 230.28405343 -268.13212633 175.69179639 -240 130 C-239.57074219 129.30181152 -239.14148438 128.60362305 -238.69921875 127.88427734 C-230.80677033 115.1614003 -222.23011828 103.27983705 -212.06640625 92.25 C-210.24386514 90.2655318 -208.49216442 88.24214108 -206.75 86.1875 C-199.09278283 77.43133036 -190.76820313 69.30063047 -181.640625 62.08984375 C-179.93617487 60.74090763 -178.25650344 59.35976685 -176.609375 57.94140625 C-150.90272952 35.91291288 -120.06433289 21.11348134 -88 11 C-88 10.34 -88 9.68 -88 9 C-87.06671875 9.04898438 -86.1334375 9.09796875 -85.171875 9.1484375 C-80.03623321 9.14585678 -75.21355052 7.8352904 -70.25 6.625 C-63.62441964 5.03781362 -57.02228599 3.58466172 -50.30371094 2.44287109 C-47.85334932 2.02414071 -47.85334932 2.02414071 -45 1 C-43.3170953 0.85094019 -41.62951314 0.75202035 -39.94140625 0.68359375 C-38.92594727 0.64153809 -37.91048828 0.59948242 -36.86425781 0.55615234 C-35.77467773 0.51699707 -34.68509766 0.4778418 -33.5625 0.4375 C-32.43811523 0.3957666 -31.31373047 0.3540332 -30.15527344 0.31103516 C-20.09740771 -0.03789958 -10.0621513 -0.18958553 0 0 Z " fill="#1F5B97" transform="translate(520,127)"/>
<path d="M0 0 C0.85078125 0.75152344 1.7015625 1.50304687 2.578125 2.27734375 C4.71264259 4.24898955 4.71264259 4.24898955 7.75 5.0625 C9.07421875 6.5234375 9.07421875 6.5234375 10.4375 8.4375 C12.13869172 10.81496794 13.83617024 13.17275509 15.63671875 15.4765625 C31.38183305 35.95449112 36.92422268 59.63446291 34.54785156 85.24072266 C31.91394137 105.25347047 22.70021888 122.69029941 8.75 137.0625 C8.14929688 137.73667969 7.54859375 138.41085937 6.9296875 139.10546875 C-7.42220397 154.66888353 -29.46324056 163.97142444 -50.42333984 165.1887207 C-76.37329564 166.04790045 -100.69555832 160.00497636 -120.1875 142.125 C-125.40301127 137.18361726 -130.027468 131.88274681 -134.25 126.0625 C-134.70246094 125.45277344 -135.15492188 124.84304688 -135.62109375 124.21484375 C-137.48745117 121.58644421 -138.25 120.3635598 -138.25 117.0625 C-138.91 117.0625 -139.57 117.0625 -140.25 117.0625 C-151.64841828 90.06042174 -154.13884137 62.85734569 -143.25 35.0625 C-138.68010652 24.32912284 -132.26678703 15.47664586 -124.25 7.0625 C-123.48171875 6.25167969 -122.7134375 5.44085938 -121.921875 4.60546875 C-89.74834572 -26.63787346 -34.38952994 -28.42446035 0 0 Z " fill="#205B96" transform="translate(570.25,322.9375)"/>
<path d="M0 0 C0.66 0 1.32 0 2 0 C2.20753906 1.00675781 2.41507812 2.01351563 2.62890625 3.05078125 C7.66877016 26.48544255 16.98300876 49.14077076 32 68 C32.721875 68.98355469 33.44375 69.96710938 34.1875 70.98046875 C43.87733783 84.06493727 55.38273514 95.62874781 67 107 C66.505 108.485 66.505 108.485 66 110 C63.47483195 107.50434749 60.95570627 105.00267549 58.4375 102.5 C57.73302734 101.80390625 57.02855469 101.1078125 56.30273438 100.390625 C51.65277936 95.76209835 47.26784286 90.98100891 43 86 C42.0999986 84.97824941 41.19903372 83.95734628 40.296875 82.9375 C20.65741186 60.28584926 1.74832528 30.66454046 0 0 Z " fill="#204773" transform="translate(342,426)"/>
<path d="M0 0 C0.99 0.33 1.98 0.66 3 1 C2.51233154 1.47195801 2.02466309 1.94391602 1.5222168 2.43017578 C-8.43930802 12.11365545 -17.78283965 21.79224048 -26 33 C-26.65484375 33.84820312 -27.3096875 34.69640625 -27.984375 35.5703125 C-41.14050846 52.91248842 -51.24954256 72.14319274 -60 92 C-61.30760971 89.02406065 -60.93854104 87.81691246 -59.8828125 84.671875 C-59.31166045 83.3580563 -58.72460482 82.05107967 -58.125 80.75 C-57.80692383 80.04544678 -57.48884766 79.34089355 -57.16113281 78.61499023 C-47.06454972 56.71066255 -33.41522331 36.00256268 -17.0859375 18.26953125 C-15.15845324 16.1723995 -13.29238643 14.03623645 -11.4375 11.875 C-7.822426 7.71681629 -3.94033303 3.84822135 0 0 Z " fill="#214874" transform="translate(325,201)"/>
<path d="M0 0 C3.1883266 2.6553526 4.41417844 5.80821477 6.0625 9.5625 C16.52511512 32.60845437 30.6305153 52.78825633 47 72 C48.0399525 73.23362528 49.07904921 74.46797261 50.1171875 75.703125 C53.93249801 80.23527062 57.77132599 84.74186657 61.6875 89.1875 C64 92 64 92 64 94 C60.31502988 92.77167663 59.50049192 91.41383683 57.125 88.375 C53.9634423 84.40514761 50.74262403 80.53116244 47.38354492 76.72729492 C0 22.9985615 0 22.9985615 0 0 Z " fill="#214670" transform="translate(264,497)"/>
<path d="M0 0 C4.45770969 0.59604028 7.943237 2.39703903 11.8125 4.5625 C17.296104 7.56703667 22.82458111 10.43225935 28.4375 13.1875 C33.83489576 15.84899008 38.98444335 18.65629557 44 22 C43.47212891 22.65742187 43.47212891 22.65742187 42.93359375 23.328125 C39.75807169 27.40738572 37.04359447 31.55880824 34.5 36.0625 C32.17606026 40.12685749 29.82947866 43.63931575 26.67578125 47.08203125 C22.22129627 52.18028795 18.21939383 57.81060982 14.35546875 63.36328125 C13.68451172 64.17345703 13.68451172 64.17345703 13 65 C12.34 65 11.68 65 11 65 C12.60529632 61.36876823 14.8450042 58.53499473 17.3125 55.4375 C21.75190137 49.77932509 25.88396894 43.939743 29.9375 38 C30.77051636 36.78074829 30.77051636 36.78074829 31.62036133 35.53686523 C36.625801 29.22371242 36.625801 29.22371242 39 22 C38.07272095 21.51756836 38.07272095 21.51756836 37.12670898 21.02539062 C31.06894599 17.87254284 25.01479615 14.71286191 18.96337891 11.54785156 C16.36707571 10.1917334 13.76791734 8.84129599 11.16796875 7.4921875 C9.820104 6.78685663 8.47243055 6.08116 7.125 5.375 C6.50810303 5.05724609 5.89120605 4.73949219 5.25561523 4.41210938 C1.11414043 2.22828085 1.11414043 2.22828085 0 0 Z " fill="#234A74" transform="translate(713,493)"/>
<path d="M0 0 C3.95588582 0.54992892 5.77646999 2.40253333 8.546875 5.18359375 C9.39121094 6.02857422 10.23554688 6.87355469 11.10546875 7.74414062 C11.97816406 8.63294922 12.85085938 9.52175781 13.75 10.4375 C15.08224609 11.76491211 15.08224609 11.76491211 16.44140625 13.11914062 C23 19.73314492 23 19.73314492 23 22 C23.99 22.33 24.98 22.66 26 23 C26 23.66 26 24.32 26 25 C26.66 25 27.32 25 28 25 C29.62109375 26.6796875 29.62109375 26.6796875 31.4375 28.875 C33.58400884 31.46193722 35.16776562 33.11184374 38 35 C38.9034267 35.98563457 39.77197851 37.00380322 40.61328125 38.04296875 C44.54288698 42.72766091 48.85600354 47.00208138 53.1875 51.3125 C53.99380859 52.12267578 54.80011719 52.93285156 55.63085938 53.76757812 C56.79391602 54.92870117 56.79391602 54.92870117 57.98046875 56.11328125 C59.03077271 57.16189331 59.03077271 57.16189331 60.10229492 58.23168945 C62.07993605 60.16986124 62.07993605 60.16986124 65 62 C63.25512695 62.72241211 63.25512695 62.72241211 61 63 C59.00463867 61.58813477 59.00463867 61.58813477 56.91796875 59.44140625 C56.15033203 58.66216797 55.38269531 57.88292969 54.59179688 57.08007812 C53.79837891 56.24927734 53.00496094 55.41847656 52.1875 54.5625 C51.40568359 53.76650391 50.62386719 52.97050781 49.81835938 52.15039062 C46.35468838 48.59991084 42.99185651 44.99969751 39.75488281 41.24169922 C35.84384732 36.75307595 31.67290036 32.56366389 27.44140625 28.37890625 C26.65225327 27.59353989 25.86310028 26.80817352 25.05003357 25.99900818 C22.55662123 23.51771066 20.05996928 21.03971366 17.5625 18.5625 C14.24847745 15.27496188 10.93770926 11.98419662 7.62890625 8.69140625 C6.86340958 7.93420792 6.0979129 7.17700958 5.30921936 6.39686584 C4.61106613 5.70201584 3.9129129 5.00716583 3.19360352 4.29125977 C2.57518082 3.67807388 1.95675812 3.064888 1.31959534 2.43312073 C0 1 0 1 0 0 Z " fill="#204774" transform="translate(450,577)"/>
<path d="M0 0 C3.560015 3.51503286 7.00319874 7.11591407 10.375 10.8125 C10.86049316 11.34383545 11.34598633 11.8751709 11.84619141 12.42260742 C15.62260235 16.56559306 19.33530698 20.75779699 23 25 C24.02326347 26.18114038 25.04671998 27.36211352 26.0703125 28.54296875 C27.79130391 30.52853715 29.5122532 32.51414176 31.23291016 34.5 C36.563295 40.65174798 41.89837422 46.79009364 47.375 52.8125 C59.78034682 66.56069364 59.78034682 66.56069364 62 71 C58.03158231 69.43668394 55.58434606 66.67874769 52.8125 63.5625 C52.32765137 63.02608887 51.84280273 62.48967773 51.34326172 61.93701172 C47.56557466 57.72291316 44.01010967 53.34824675 40.46484375 48.9375 C36.96648228 44.76829584 33.25522462 40.81112194 29.51611328 36.85791016 C21 27.83181881 21 27.83181881 21 25 C20.01 24.67 19.02 24.34 18 24 C16.56197818 22.4089357 15.19674665 20.7513985 13.875 19.0625 C10.00515039 14.18865 5.93690169 9.60535289 1.65234375 5.09375 C0 3 0 3 0 0 Z " fill="#214670" transform="translate(372,640)"/>
<path d="M0 0 C9.00699292 1.38691749 16.08583243 7.64536441 22.87109375 13.36328125 C24.99324432 15.17970439 24.99324432 15.17970439 28 16 C29.32421875 17.4609375 29.32421875 17.4609375 30.6875 19.375 C32.38869172 21.75246794 34.08617024 24.11025509 35.88671875 26.4140625 C43.24965268 35.99021625 51 47.54211778 51 60 C49.23105521 57.34658281 48.15467449 54.92867545 47.0480957 51.96240234 C38.83095618 30.04093953 23.38511664 12.89704039 2.16796875 2.9609375 C1.45253906 2.64382813 0.73710938 2.32671875 0 2 C0 1.34 0 0.68 0 0 Z " fill="#214B78" transform="translate(550,312)"/>
<path d="M0 0 C0.66 0 1.32 0 2 0 C2 0.66 2 1.32 2 2 C2.81791016 2.34417969 2.81791016 2.34417969 3.65234375 2.6953125 C16.43389589 9.79853782 28.24483999 24.93641777 36 37 C36.40669922 37.62519531 36.81339844 38.25039063 37.23242188 38.89453125 C38.60269865 41.00662694 39.95984702 43.12657909 41.3125 45.25 C41.74570557 45.92385742 42.17891113 46.59771484 42.62524414 47.29199219 C45.01315526 51.09871147 46.77260494 54.63291483 48 59 C47.34 59 46.68 59 46 59 C44.39363173 56.46442816 42.90186781 53.92872993 41.4375 51.3125 C35.11946949 40.33907858 28.46777643 30.09252004 19.62915039 20.95581055 C17.73078212 18.9822662 16.12844211 17.26676438 14.93359375 14.78515625 C13.69745119 12.42148617 12.3972468 12.10143772 10 11 C8.40001885 9.7334603 6.83863988 8.4171068 5.3125 7.0625 C4.52488281 6.37285156 3.73726562 5.68320312 2.92578125 4.97265625 C1 3 1 3 0 0 Z " fill="#214772" transform="translate(620,260)"/>
<path d="M0 0 C0.33 0 0.66 0 1 0 C1 21.78 1 43.56 1 66 C-7.36872121 49.26255759 -3.93185267 20.17943141 -1 2 C-0.67 1.34 -0.34 0.68 0 0 Z " fill="#20436D" transform="translate(245,363)"/>
<path d="M0 0 C14.53179399 6.35142483 26.53708374 23.67007516 36.375 35.75 C36.91165283 36.40049316 37.44830566 37.05098633 38.0012207 37.72119141 C38.50355225 38.34429199 39.00588379 38.96739258 39.5234375 39.609375 C40.202854 40.4442041 40.202854 40.4442041 40.89599609 41.29589844 C42.11593125 43.1789474 42.57700829 44.80905848 43 47 C39.39079159 43.48781332 36.08754778 39.81714706 32.875 35.9375 C23.19313238 24.37980154 13.10935966 13.07120125 1.46875 3.4453125 C0.9840625 2.96835938 0.499375 2.49140625 0 2 C0 1.34 0 0.68 0 0 Z " fill="#214976" transform="translate(689,193)"/>
<path d="M0 0 C0.66 0.33 1.32 0.66 2 1 C-5.81304441 17.50306319 -18.549028 32.7756757 -31 46 C-31.495 44.515 -31.495 44.515 -32 43 C-31.48953125 42.46375 -30.9790625 41.9275 -30.453125 41.375 C-18.71777512 28.72412637 -9.16418176 14.57610013 0 0 Z " fill="#224A76" transform="translate(669,469)"/>
<path d="M0 0 C7.34829279 1.32163539 13.49655898 3.78959935 20.1875 7.0625 C21.69401123 7.79134399 21.69401123 7.79134399 23.23095703 8.53491211 C44.50583491 19.01166983 44.50583491 19.01166983 47 24 C42.32887583 23.47416989 39.10229744 21.34093614 35.3125 18.75 C25.85596225 11.89135366 25.85596225 11.89135366 15 9 C14.67 8.34 14.34 7.68 14 7 C11.65062258 6.0416631 9.33781945 5.18214554 6.9375 4.375 C6.27427734 4.14554688 5.61105469 3.91609375 4.92773438 3.6796875 C3.28740331 3.11324224 1.64397843 2.55577077 0 2 C0 1.34 0 0.68 0 0 Z " fill="#224A77" transform="translate(569,233)"/>
<path d="M0 0 C1.98 0 3.96 0 6 0 C6 0.66 6 1.32 6 2 C8.36822388 3.58084264 10.73951219 5.05208957 13.1875 6.5 C23.52409839 12.77912361 32.93248919 19.98685091 42 28 C41.67 28.66 41.34 29.32 41 30 C40.16339844 29.32195312 39.32679688 28.64390625 38.46484375 27.9453125 C26.96151612 18.71189462 15.04069385 10.46894419 2.09765625 3.375 C1.40542969 2.92125 0.71320312 2.4675 0 2 C0 1.34 0 0.68 0 0 Z " fill="#214B79" transform="translate(645,162)"/>
<path d="M0 0 C0 0.99 0 1.98 0 3 C-0.99257813 3.4846875 -1.98515625 3.969375 -3.0078125 4.46875 C-16.82217141 11.26120932 -29.89449096 18.42201483 -42 28 C-42.66 27.67 -43.32 27.34 -44 27 C-31.07526868 16.0705613 -15.9378191 5.99551229 0 0 Z " fill="#204773" transform="translate(444,236)"/>
<path d="M0 0 C0.66 0 1.32 0 2 0 C0.60724155 3.8579409 -1.22494107 6.97173561 -3.5 10.375 C-9.18092573 19.19580681 -12.96691714 28.9851074 -16.98193359 38.64086914 C-17.91574671 40.8047627 -18.92272664 42.9044944 -20 45 C-21.31412867 41.057614 -20.03432029 38.83347362 -18.5 35.1875 C-18.08886963 34.19097412 -18.08886963 34.19097412 -17.66943359 33.17431641 C-12.84968662 21.68693528 -7.3182052 10.12772306 0 0 Z " fill="#214975" transform="translate(369,296)"/>
<path d="M0 0 C0.87245361 0.00717041 1.74490723 0.01434082 2.64379883 0.02172852 C9.37085171 0.10256093 16.09171343 0.32943405 22.8125 0.625 C23.72692871 0.66407471 24.64135742 0.70314941 25.58349609 0.7434082 C26.42605957 0.78554443 27.26862305 0.82768066 28.13671875 0.87109375 C29.25759888 0.92608032 29.25759888 0.92608032 30.40112305 0.98217773 C32.125 1.1875 32.125 1.1875 33.125 2.1875 C35.45317964 2.55510731 37.7868385 2.88991581 40.125 3.1875 C40.125 3.5175 40.125 3.8475 40.125 4.1875 C38.50010429 4.2153024 36.87505717 4.2342446 35.25 4.25 C33.89261719 4.26740234 33.89261719 4.26740234 32.5078125 4.28515625 C29.86974634 4.20899961 27.36536841 4.01254689 24.75 3.71875 C17.52065678 2.95401658 10.26176696 2.82931016 3 2.625 C1.55207378 2.58169844 0.10415698 2.53808094 -1.34375 2.49414062 C-4.85406578 2.38828894 -8.36448913 2.28669761 -11.875 2.1875 C-7.92821874 -0.44368751 -4.57444982 -0.07013488 0 0 Z " fill="#28507D" transform="translate(508.875,126.8125)"/>
<path d="M0 0 C-0.58265625 0.31114746 -1.1653125 0.62229492 -1.765625 0.94287109 C-14.12033252 7.55972998 -26.2342489 14.38091763 -38 22 C-38 21.01 -38 20.02 -38 19 C-35.73838058 17.32073217 -33.53671721 15.87313948 -31.125 14.4375 C-30.41698242 14.00783936 -29.70896484 13.57817871 -28.97949219 13.13549805 C-26.6621744 11.7409097 -24.33275728 10.36858882 -22 9 C-21.18821289 8.51885742 -20.37642578 8.03771484 -19.54003906 7.54199219 C-17.11953432 6.11495677 -14.68778945 4.70976956 -12.25 3.3125 C-11.4883252 2.86640381 -10.72665039 2.42030762 -9.94189453 1.96069336 C-9.22372559 1.55729736 -8.50555664 1.15390137 -7.765625 0.73828125 C-6.81864746 0.19747925 -6.81864746 0.19747925 -5.85253906 -0.35424805 C-3.54308105 -1.1592713 -2.27613031 -0.78505712 0 0 Z " fill="#234D7B" transform="translate(397,154)"/>
<path d="M0 0 C0.99 0.845625 1.98 1.69125 3 2.5625 C3.64839844 3.11292969 4.29679687 3.66335938 4.96484375 4.23046875 C6.25307079 5.35055867 7.51964054 6.49649397 8.75390625 7.67578125 C16.35312873 14.81543952 25.70777619 19.4244977 35 24 C32.34742012 25.02982513 31.17827051 25.06014929 28.44140625 24.13671875 C18.00439084 18.88280733 7.64696822 11.95787705 0 3 C0 2.01 0 1.02 0 0 Z " fill="#204874" transform="translate(444,456)"/>
<path d="M0 0 C0 0.66 0 1.32 0 2 C-0.80107178 2.42821045 -1.60214355 2.8564209 -2.42749023 3.29760742 C-5.44147237 4.90917055 -8.45510175 6.52138969 -11.46850586 8.1340332 C-12.76491778 8.82764975 -14.06146382 9.52101568 -15.3581543 10.21411133 C-16.61785539 10.88747529 -17.87734831 11.56122887 -19.1366272 12.23538208 C-20.37184297 12.89640324 -21.60765916 13.55630369 -22.84408569 14.21505737 C-27.04616715 16.46133035 -31.17461066 18.81061012 -35.25024414 21.27856445 C-37 22 -37 22 -40 21 C-36.39664317 18.95690167 -32.79216257 16.91579358 -29.1875 14.875 C-28.18267578 14.30523437 -27.17785156 13.73546875 -26.14257812 13.1484375 C-2.90869141 0 -2.90869141 0 0 0 Z " fill="#224873" transform="translate(732,288)"/>
<path d="M0 0 C0.556875 0.226875 1.11375 0.45375 1.6875 0.6875 C0.82769531 1.12578125 -0.03210938 1.5640625 -0.91796875 2.015625 C-9.17333794 6.38742946 -15.80027234 11.42825063 -22.47265625 17.953125 C-24.98597219 20.37309909 -27.55132611 22.55962287 -30.3125 24.6875 C-26.67194123 14.28590352 -16.14776803 8.42307092 -7.3125 2.6875 C-6.43980469 2.08550781 -5.56710937 1.48351562 -4.66796875 0.86328125 C-2.3125 -0.3125 -2.3125 -0.3125 0 0 Z " fill="#224B77" transform="translate(471.3125,313.3125)"/>
<path d="M0 0 C3.73323926 1.24441309 4.59860164 2.72687968 7 5.8125 C11.27234897 11.18265386 15.80627588 16.19047651 20.51953125 21.17578125 C23.00940651 24.01071009 24.98564536 26.82116996 27 30 C22.7936195 28.39756933 20.18479822 25.26602216 17.25 22 C16.74339844 21.4534375 16.23679687 20.906875 15.71484375 20.34375 C12 16.25842318 12 16.25842318 12 14 C11.34 14 10.68 14 10 14 C8.41466298 12.28667246 6.90458785 10.50310953 5.4375 8.6875 C4.63183594 7.70136719 3.82617188 6.71523438 2.99609375 5.69921875 C1 3 1 3 0 0 Z " fill="#20446D" transform="translate(449,729)"/>
<path d="M0 0 C0.66 0 1.32 0 2 0 C3.37212301 1.53195272 4.6715446 3.12921081 5.9375 4.75 C10.22115815 10.11322304 14.74005678 15.15856962 19.421875 20.17578125 C27 28.47727273 27 28.47727273 27 31 C26.34 31 25.68 31 25 31 C23.60674046 29.44759659 22.28619872 27.82970015 21 26.1875 C16.83993799 20.96543842 12.44945698 16.07195055 7.87109375 11.21484375 C6 9 6 9 6 7 C5.34 7 4.68 7 4 7 C0 2.52941176 0 2.52941176 0 0 Z " fill="#20436A" transform="translate(477,761)"/>
<path d="M0 0 C0 0.66 0 1.32 0 2 C-0.64960693 2.13575439 -1.29921387 2.27150879 -1.96850586 2.41137695 C-4.95934327 3.03964158 -7.9484012 3.67601709 -10.9375 4.3125 C-11.95908203 4.52583984 -12.98066406 4.73917969 -14.03320312 4.95898438 C-19.54679626 6.13921038 -24.85605279 7.48673427 -30.15625 9.41992188 C-32.48489103 10.15255576 -34.57800906 10.23438622 -37 10 C-34.88601389 7.88601389 -33.8180544 7.44991894 -31.03515625 6.5625 C-29.84237061 6.18085693 -29.84237061 6.18085693 -28.62548828 5.79150391 C-27.35680908 5.39970947 -27.35680908 5.39970947 -26.0625 5 C-24.77448486 4.5985376 -24.77448486 4.5985376 -23.46044922 4.18896484 C-15.69971189 1.81962037 -8.16083847 -0.14418443 0 0 Z " fill="#234C79" transform="translate(484,226)"/>
<path d="M0 0 C3.93040242 3.47759108 6.31076993 7.49218152 8.875 12 C9.30296875 12.7115625 9.7309375 13.423125 10.171875 14.15625 C10.56632813 14.8471875 10.96078125 15.538125 11.3671875 16.25 C11.72925293 16.87390625 12.09131836 17.4978125 12.46435547 18.140625 C13 20 13 20 12.28173828 22.12109375 C10.35603531 24.94399091 8.14656298 25.80430607 5 27 C2.625 26.6875 2.625 26.6875 1 26 C7.75 22 7.75 22 10 22 C7.62529407 15.99339088 4.55864944 10.42953699 1.42578125 4.79296875 C0 2 0 2 0 0 Z " fill="#254C76" transform="translate(742,255)"/>
<path d="M0 0 C3.98416091 0.54365542 5.78363228 2.43465185 8.546875 5.25390625 C9.39121094 6.10791016 10.23554688 6.96191406 11.10546875 7.84179688 C11.97816406 8.73962891 12.85085938 9.63746094 13.75 10.5625 C14.63816406 11.46419922 15.52632813 12.36589844 16.44140625 13.29492188 C18.63448315 15.52337098 20.82026044 17.75851593 23 20 C22.01 20.33 21.02 20.66 20 21 C17.14852788 18.17317491 14.30029574 15.34313037 11.45507812 12.51000977 C10.48592079 11.54589335 9.51586952 10.58267471 8.54492188 9.62036133 C7.15262088 8.24013641 5.7637538 6.85645022 4.375 5.47265625 C3.53710938 4.64000244 2.69921875 3.80734863 1.8359375 2.94946289 C0 1 0 1 0 0 Z " fill="#265181" transform="translate(450,577)"/>
<path d="M0 0 C7.33333333 7.33333333 14.66666667 14.66666667 22 22 C21.67 22.99 21.34 23.98 21 25 C18.43326478 22.46258085 15.87240443 19.91930885 13.3125 17.375 C12.59126953 16.66214844 11.87003906 15.94929687 11.12695312 15.21484375 C3.25590042 7.37973192 3.25590042 7.37973192 0 3 C0 2.01 0 1.02 0 0 Z " fill="#214B7A" transform="translate(387,511)"/>
<path d="M0 0 C1.49176758 -0.00580078 1.49176758 -0.00580078 3.01367188 -0.01171875 C8.98638629 -0.0038754 14.7646909 0.35165912 20.6875 1.125 C20.6875 1.455 20.6875 1.785 20.6875 2.125 C7.98477838 3.57865652 -4.58136278 2.81694374 -17.3125 2.125 C-17.3125 1.795 -17.3125 1.465 -17.3125 1.125 C-11.54691045 -0.11258822 -5.86521842 -0.02254408 0 0 Z " fill="#1B3F6B" transform="translate(510.3125,222.875)"/>
<path d="M0 0 C1.81013986 2.71520979 2.67164866 4.68860109 3.65625 7.74609375 C3.95660156 8.66583984 4.25695312 9.58558594 4.56640625 10.53320312 C5.02853516 11.97083008 5.02853516 11.97083008 5.5 13.4375 C6.11176371 15.33294362 6.72624874 17.22751156 7.34375 19.12109375 C7.61380859 19.9608374 7.88386719 20.80058105 8.16210938 21.66577148 C8.94341895 24.00800444 8.94341895 24.00800444 10.10351562 26.11743164 C11 28 11 28 11 31 C10.34 31 9.68 31 9 31 C7.8734369 27.95891001 6.74903305 24.91702595 5.625 21.875 C5.30789063 21.0190625 4.99078125 20.163125 4.6640625 19.28125 C-0.28046738 5.88981492 -0.28046738 5.88981492 0 0 Z " fill="#21446D" transform="translate(253,465)"/>
<path d="M0 0 C-1.41460374 4.24381123 -4.5287724 5.66656988 -8.125 8 C-8.77726563 8.43828125 -9.42953125 8.8765625 -10.1015625 9.328125 C-20.86263688 16.41676923 -20.86263688 16.41676923 -25.20361328 15.5703125 C-25.7964209 15.38210938 -26.38922852 15.19390625 -27 15 C-26.45585449 14.72325439 -25.91170898 14.44650879 -25.35107422 14.16137695 C-22.85495902 12.88625113 -20.36501504 11.59949458 -17.875 10.3125 C-17.0190625 9.87744141 -16.163125 9.44238281 -15.28125 8.99414062 C-11.23900752 6.89528395 -4.08589483 0 0 0 Z " fill="#224974" transform="translate(572,465)"/>
<path d="M0 0 C0.66 0 1.32 0 2 0 C0.26727919 4.25784443 -2.75811408 7.40102032 -5.75 10.8125 C-6.26304687 11.40353516 -6.77609375 11.99457031 -7.3046875 12.60351562 C-8.34013516 13.79636174 -9.37854729 14.98664108 -10.41992188 16.17431641 C-11.51482325 17.43940795 -12.59326052 18.71886544 -13.65820312 20.00927734 C-14.18865234 20.64945801 -14.71910156 21.28963867 -15.265625 21.94921875 C-15.74290039 22.53405029 -16.22017578 23.11888184 -16.71191406 23.72143555 C-18 25 -18 25 -20 25 C-18.39009231 21.08224776 -15.69190079 18.32961336 -12.8125 15.3125 C-8.68336314 10.91983004 -4.88459189 6.43498736 -1.33984375 1.546875 C-0.89769531 1.03640625 -0.45554687 0.5259375 0 0 Z " fill="#21456E" transform="translate(667,622)"/>
<path d="M0 0 C0.66 0 1.32 0 2 0 C3.39325954 1.55240341 4.71380128 3.17029985 6 4.8125 C10.76429239 10.77754901 15.8118743 16.40029021 21 22 C20.67 22.66 20.34 23.32 20 24 C14.41711 18.53104653 9.03743803 12.97706378 4 7 C3.195625 6.05125 2.39125 5.1025 1.5625 4.125 C0 2 0 2 0 0 Z " fill="#20446E" transform="translate(350,616)"/>
<path d="M0 0 C4.85419266 0.59197472 8.64240676 1.86392488 13 4 C13.33 4.66 13.66 5.32 14 6 C15.65697379 6.69040574 17.3255761 7.3530635 19 8 C20.6829392 8.97236487 22.35443434 9.96564444 24 11 C23.67 11.66 23.34 12.32 23 13 C22.44538086 12.70754395 21.89076172 12.41508789 21.31933594 12.11376953 C18.79645379 10.7837432 16.27323053 9.45436528 13.75 8.125 C12.87730469 7.66480469 12.00460937 7.20460938 11.10546875 6.73046875 C10.26113281 6.28574219 9.41679688 5.84101563 8.546875 5.3828125 C7.77182617 4.97434082 6.99677734 4.56586914 6.19824219 4.14501953 C4.14268653 3.07432251 2.076265 2.02986053 0 1 C0 0.67 0 0.34 0 0 Z " fill="#224D7D" transform="translate(672,472)"/>
<path d="M0 0 C5.38803389 0.54893762 9.40795259 2.46520706 14.125 4.9375 C14.82753906 5.29779297 15.53007813 5.65808594 16.25390625 6.02929688 C17.59314513 6.71663781 18.93081755 7.40704294 20.26660156 8.10107422 C22.16806071 9.08715487 24.0802376 10.05006575 26 11 C26 11.66 26 12.32 26 13 C21.8234161 11.69869048 18.01723235 10.11757518 14.125 8.125 C13.09117187 7.5990625 12.05734375 7.073125 10.9921875 6.53125 C9.51105469 5.77328125 9.51105469 5.77328125 8 5 C6.41763566 4.20639831 4.83445946 3.41441041 3.25 2.625 C2.1775 2.08875 1.105 1.5525 0 1 C0 0.67 0 0.34 0 0 Z " fill="#224C7A" transform="translate(618,149)"/>
<path d="M0 0 C3.98468285 3.93982713 7.85755111 7.97230543 11.6875 12.0625 C12.55858398 12.97999023 12.55858398 12.97999023 13.44726562 13.91601562 C14.28354492 14.81030273 14.28354492 14.81030273 15.13671875 15.72265625 C15.63905029 16.25640869 16.14138184 16.79016113 16.65893555 17.34008789 C18.10203006 19.12628844 19.04726345 20.91689804 20 23 C15.90313841 21.41909341 13.40542543 18.4566009 10.5625 15.25 C10.09779297 14.73695313 9.63308594 14.22390625 9.15429688 13.6953125 C7.75532948 12.14220504 6.376581 10.57295698 5 9 C4.51772949 8.46439453 4.03545898 7.92878906 3.53857422 7.37695312 C0 3.34355187 0 3.34355187 0 0 Z " fill="#20436D" transform="translate(329,591)"/>
<path d="M0 0 C3.42754467 0.58110671 5.04538661 1.68553624 7.453125 4.16015625 C8.071875 4.78857422 8.690625 5.41699219 9.328125 6.06445312 C9.96234375 6.72380859 10.5965625 7.38316406 11.25 8.0625 C11.8996875 8.72572266 12.549375 9.38894531 13.21875 10.07226562 C14.8194676 11.70829317 16.41276193 13.35090912 18 15 C17.67 15.99 17.34 16.98 17 18 C14.16266225 15.19151503 11.33081251 12.37756077 8.5 9.5625 C7.68917969 8.76005859 6.87835938 7.95761719 6.04296875 7.13085938 C5.27597656 6.36708984 4.50898438 5.60332031 3.71875 4.81640625 C3.00654297 4.10943604 2.29433594 3.40246582 1.56054688 2.67407227 C0 1 0 1 0 0 Z " fill="#234D7C" transform="translate(415,542)"/>
<path d="M0 0 C0 0.66 0 1.32 0 2 C-3.09883145 3.67673137 -6.20488455 5.3396134 -9.3125 7 C-10.63411133 7.71542969 -10.63411133 7.71542969 -11.98242188 8.4453125 C-12.82998047 8.89648438 -13.67753906 9.34765625 -14.55078125 9.8125 C-15.33106689 10.23144531 -16.11135254 10.65039062 -16.9152832 11.08203125 C-19 12 -19 12 -22 12 C-22 11.01 -22 10.02 -22 9 C-20.741875 8.62875 -19.48375 8.2575 -18.1875 7.875 C-13.19859965 6.23578988 -8.82034529 3.82863842 -4.28515625 1.20703125 C-2 0 -2 0 0 0 Z " fill="#234A76" transform="translate(690,311)"/>
<path d="M0 0 C0.66 0.33 1.32 0.66 2 1 C0.10468802 2.58396089 -1.7912326 4.1671836 -3.6875 5.75 C-4.48317383 6.41515625 -4.48317383 6.41515625 -5.29492188 7.09375 C-6.35160827 7.97540245 -7.41002851 8.8549812 -8.47021484 9.73242188 C-9.90878783 10.92442171 -11.33944078 12.1259615 -12.76953125 13.328125 C-15 15 -15 15 -17 15 C-15.93769821 11.81309463 -15.44618128 11.29302866 -12.91015625 9.3359375 C-12.29076172 8.85382813 -11.67136719 8.37171875 -11.03320312 7.875 C-10.38287109 7.38 -9.73253906 6.885 -9.0625 6.375 C-8.41603516 5.87226563 -7.76957031 5.36953125 -7.10351562 4.8515625 C-2.33508929 1.16754464 -2.33508929 1.16754464 0 0 Z " fill="#214772" transform="translate(354,177)"/>
<path d="M0 0 C0.66 0 1.32 0 2 0 C0.66959987 3.57107403 -0.92889527 6.70226642 -2.9375 9.9375 C-5.15160877 13.55911068 -7.18363124 17.16544372 -9 21 C-9.703125 19.40625 -9.703125 19.40625 -10 17 C-8.671875 13.90625 -8.671875 13.90625 -6.75 10.5 C-6.12609375 9.3759375 -5.5021875 8.251875 -4.859375 7.09375 C-1.91502553 2.19474836 -1.91502553 2.19474836 0 0 Z " fill="#204772" transform="translate(438,339)"/>
<path d="M0 0 C4.44926052 0.41314562 6.84100104 3.50461527 9.75 6.5625 C10.25660156 7.08263672 10.76320313 7.60277344 11.28515625 8.13867188 C12.53034405 9.41910084 13.76611502 10.70867554 15 12 C14.67 12.99 14.34 13.98 14 15 C11.66265901 12.69152056 9.33081534 10.37756659 7 8.0625 C6.33226562 7.40314453 5.66453125 6.74378906 4.9765625 6.06445312 C4.34492188 5.43603516 3.71328125 4.80761719 3.0625 4.16015625 C2.47597656 3.57886963 1.88945312 2.99758301 1.28515625 2.39868164 C0 1 0 1 0 0 Z " fill="#234C7B" transform="translate(434,561)"/>
<path d="M0 0 C-1.33643047 3.06786501 -2.68910571 4.81583908 -5.3125 6.875 C-7.77467654 8.88577751 -9.83786807 10.88320257 -11.8125 13.375 C-12.534375 14.24125 -13.25625 15.1075 -14 16 C-14.66 16 -15.32 16 -16 16 C-14.33536962 11.71357676 -11.20924163 8.91382783 -8 5.75 C-7.4534375 5.19570313 -6.906875 4.64140625 -6.34375 4.0703125 C-2.2533867 0 -2.2533867 0 0 0 Z " fill="#214975" transform="translate(398,266)"/>
<path d="M0 0 C0.734375 1.55859375 0.734375 1.55859375 1 4 C-0.1550464 6.49968374 -1.33148315 8.72340458 -2.75 11.0625 C-3.1109375 11.68705078 -3.471875 12.31160156 -3.84375 12.95507812 C-5.62097517 15.97185347 -7.33659258 18.69901827 -10 21 C-10.66 20.67 -11.32 20.34 -12 20 C-11.55269531 19.39414062 -11.10539063 18.78828125 -10.64453125 18.1640625 C-6.45096521 12.35208398 -3.00350467 6.50528662 0 0 Z " fill="#214873" transform="translate(596,431)"/>
<path d="M0 0 C0.66 0.33 1.32 0.66 2 1 C1.57589844 1.4125 1.15179687 1.825 0.71484375 2.25 C-3.20551025 6.11004086 -6.88081758 10.08957044 -10.421875 14.30078125 C-12 16 -12 16 -15 18 C-14.41889329 14.57245533 -13.31446376 12.95461339 -10.83984375 10.546875 C-10.21142578 9.928125 -9.58300781 9.309375 -8.93554688 8.671875 C-8.27619141 8.03765625 -7.61683594 7.4034375 -6.9375 6.75 C-6.27427734 6.1003125 -5.61105469 5.450625 -4.92773438 4.78125 C-3.29170683 3.1805324 -1.64909088 1.58723807 0 0 Z " fill="#204672" transform="translate(531,619)"/>
<path d="M0 0 C0.33 1.32 0.66 2.64 1 4 C0.37351562 4.54269531 -0.25296875 5.08539062 -0.8984375 5.64453125 C-1.71570313 6.35996094 -2.53296875 7.07539062 -3.375 7.8125 C-4.18710937 8.52019531 -4.99921875 9.22789062 -5.8359375 9.95703125 C-8.16183188 11.99981253 -8.16183188 11.99981253 -10 15 C-10.66 14.67 -11.32 14.34 -12 14 C-8.72905967 8.54843278 -4.58146674 4.38130557 0 0 Z " fill="#25507F" transform="translate(625,524)"/>
<path d="M0 0 C4.40064304 1.54228144 6.59595898 5.01426977 9.25 8.625 C9.70890625 9.23601562 10.1678125 9.84703125 10.640625 10.4765625 C11.76751252 11.9790792 12.88472437 13.48884409 14 15 C13.67 15.66 13.34 16.32 13 17 C11.39143782 15.10775143 9.78813034 13.21143975 8.1875 11.3125 C7.73568359 10.78205078 7.28386719 10.25160156 6.81835938 9.70507812 C4.22098126 6.61476694 1.96851236 3.52501051 0 0 Z " fill="#20446D" transform="translate(718,223)"/>
<path d="M0 0 C0.66 0.33 1.32 0.66 2 1 C1.43410156 1.55429687 0.86820313 2.10859375 0.28515625 2.6796875 C-0.44832031 3.40414062 -1.18179688 4.12859375 -1.9375 4.875 C-2.66839844 5.59429688 -3.39929688 6.31359375 -4.15234375 7.0546875 C-6.05667999 8.87027192 -6.05667999 8.87027192 -7 11 C-7.66 11 -8.32 11 -9 11 C-9.33 11.99 -9.66 12.98 -10 14 C-10.66 13.67 -11.32 13.34 -12 13 C-11.09373216 11.7010161 -10.17450463 10.41106833 -9.25 9.125 C-8.73953125 8.40570312 -8.2290625 7.68640625 -7.703125 6.9453125 C-5.92496453 4.91429435 -4.47298393 4.02144988 -2 3 C-2 2.34 -2 1.68 -2 1 C-1.34 0.67 -0.68 0.34 0 0 Z " fill="#224B79" transform="translate(561,589)"/>
<path d="M0 0 C0.99 0.33 1.98 0.66 3 1 C-0.3810038 5.13621084 -3.66590534 8.81316569 -8 12 C-8.33 11.01 -8.66 10.02 -9 9 C-6.03 6.03 -3.06 3.06 0 0 Z " fill="#254F7D" transform="translate(592,557)"/>
<path d="M0 0 C0 0.66 0 1.32 0 2 C-0.66 2 -1.32 2 -2 2 C-2.33 2.99 -2.66 3.98 -3 5 C-5.375 6.75 -5.375 6.75 -8 8 C-8.99 7.67 -9.98 7.34 -11 7 C-9.9296491 5.82141137 -8.84316035 4.6574639 -7.75 3.5 C-7.14671875 2.8503125 -6.5434375 2.200625 -5.921875 1.53125 C-4 0 -4 0 0 0 Z " fill="#26568A" transform="translate(637,516)"/>
<path d="M0 0 C5.13134625 0.51313463 9.74837792 2.05734987 14 5 C14.33 5.99 14.66 6.98 15 8 C9.52067211 6.45454854 4.88570819 3.84456788 0 1 C0 0.67 0 0.34 0 0 Z " fill="#204B7A" transform="translate(697,485)"/>
<path d="M0 0 C2.16730018 3.25095026 2.81305307 5.71215185 3.6875 9.5 C3.95949219 10.6446875 4.23148438 11.789375 4.51171875 12.96875 C5 16 5 16 4 19 C1.01840019 12.38862651 -0.14408426 7.34829742 0 0 Z " fill="#1E436C" transform="translate(248,444)"/>
<path d="M0 0 C3.90037529 1.3001251 5.07500029 3.24377072 7.625 6.4375 C8.42164063 7.42621094 9.21828125 8.41492188 10.0390625 9.43359375 C12 12 12 12 13 14 C9.16549144 12.45212498 6.97444301 10.06277254 4.25 7 C3.45078125 6.113125 2.6515625 5.22625 1.828125 4.3125 C0 2 0 2 0 0 Z " fill="#21446B" transform="translate(435,713)"/>
<path d="M0 0 C4.58716587 4.44381694 8.78762713 9.20228499 13 14 C10 14 10 14 7.51953125 11.69921875 C6.60855993 10.70313479 5.70650701 9.69883746 4.8125 8.6875 C4.34908203 8.18798828 3.88566406 7.68847656 3.40820312 7.17382812 C0 3.38414718 0 3.38414718 0 0 Z " fill="#1F4269" transform="translate(421,696)"/>
<path d="M0 0 C0.66 0.33 1.32 0.66 2 1 C0.88200014 2.33920838 -0.24461897 3.67122556 -1.375 5 C-2.00148438 5.7425 -2.62796875 6.485 -3.2734375 7.25 C-4.12808594 8.11625 -4.12808594 8.11625 -5 9 C-5.66 9 -6.32 9 -7 9 C-7.33 9.99 -7.66 10.98 -8 12 C-8.66 11.67 -9.32 11.34 -10 11 C-8.625 8.5 -8.625 8.5 -7 6 C-6.34 6 -5.68 6 -5 6 C-4.731875 5.38125 -4.46375 4.7625 -4.1875 4.125 C-3 2 -3 2 0 0 Z " fill="#224C7A" transform="translate(575,575)"/>
<path d="M0 0 C3.88250593 0.59870418 6.21695044 2.45388149 9.25 4.875 C10.14203125 5.57367188 11.0340625 6.27234375 11.953125 6.9921875 C12.62859375 7.65476563 13.3040625 8.31734375 14 9 C14 9.99 14 10.98 14 12 C11.66372963 10.19117843 9.33092238 8.37818954 7 6.5625 C6.33226562 6.04623047 5.66453125 5.52996094 4.9765625 4.99804688 C3.29922866 3.68869954 1.64735006 2.34687677 0 1 C0 0.67 0 0.34 0 0 Z " fill="#1D426B" transform="translate(672,180)"/>
<path d="M0 0 C0.66 0.33 1.32 0.66 2 1 C-1.20760251 4.80635497 -4.40746109 8.54563567 -8 12 C-8.66 11.67 -9.32 11.34 -10 11 C-8.7260411 8.96166576 -7.38938077 6.96147874 -6 5 C-5.34 5 -4.68 5 -4 5 C-3.566875 4.0409375 -3.566875 4.0409375 -3.125 3.0625 C-2 1 -2 1 0 0 Z " fill="#214A77" transform="translate(607,543)"/>
<path d="M0 0 C4.20240011 3.71750779 6.99782679 8.31660979 10 13 C9.67 13.66 9.34 14.32 9 15 C0 4.89320388 0 4.89320388 0 0 Z " fill="#204572" transform="translate(433,441)"/>
<path d="M0 0 C-2.12282669 1.00460531 -4.24833021 2.00355602 -6.375 3 C-8.15003906 3.8353125 -8.15003906 3.8353125 -9.9609375 4.6875 C-13 6 -13 6 -15 6 C-15 5.34 -15 4.68 -15 4 C-13.25705322 3.13153169 -11.50531337 2.28069373 -9.75 1.4375 C-8.77546875 0.96183594 -7.8009375 0.48617187 -6.796875 -0.00390625 C-3.90143703 -1.03510273 -2.80033839 -1.11346788 0 0 Z " fill="#234B77" transform="translate(413,147)"/>
<path d="M0 0 C0 3.6987636 -0.84352062 4.35773852 -3.25 7.0625 C-4.15492188 8.10083984 -4.15492188 8.10083984 -5.078125 9.16015625 C-6.97018869 10.97146113 -8.60605599 11.9778071 -11 13 C-7.61227103 8.30840284 -4.21814817 3.9700218 0 0 Z " fill="#21446B" transform="translate(598,702)"/>
<path d="M0 0 C0.33 0.66 0.66 1.32 1 2 C-0.28419041 3.67243402 -1.57757185 5.33781447 -2.875 7 C-3.59429688 7.928125 -4.31359375 8.85625 -5.0546875 9.8125 C-5.69664062 10.534375 -6.33859375 11.25625 -7 12 C-7.66 12 -8.32 12 -9 12 C-7.55575365 8.76138697 -5.74227753 6.38030837 -3.375 3.75 C-2.74335937 3.04359375 -2.11171875 2.3371875 -1.4609375 1.609375 C-0.97882812 1.07828125 -0.49671875 0.5471875 0 0 Z " fill="#224975" transform="translate(722,559)"/>
<path d="M0 0 C3.37227049 1.39367924 4.90493713 2.84275299 6.8125 5.9375 C7.25207031 6.62714844 7.69164062 7.31679687 8.14453125 8.02734375 C9 10 9 10 8 13 C6.66388095 11.0226631 5.33100742 9.04327287 4 7.0625 C3.6184375 6.49853516 3.236875 5.93457031 2.84375 5.35351562 C0 1.11328125 0 1.11328125 0 0 Z " fill="#1E4470" transform="translate(732,241)"/>
<path d="M0 0 C0.33 0 0.66 0 1 0 C0.85764543 1.72945653 0.71095618 3.45855654 0.5625 5.1875 C0.48128906 6.15042969 0.40007812 7.11335938 0.31640625 8.10546875 C0.02333849 10.78649602 -0.42703754 13.3662986 -1 16 C-1.33 16 -1.66 16 -2 16 C-2.05449838 14.27119018 -2.09301688 12.54187288 -2.125 10.8125 C-2.14820313 9.84957031 -2.17140625 8.88664062 -2.1953125 7.89453125 C-1.9913544 4.87187222 -1.26874632 2.73230015 0 0 Z " fill="#1E3F66" transform="translate(248,346)"/>
<path d="M0 0 C0.33 0.99 0.66 1.98 1 3 C-0.36328125 5.04296875 -0.36328125 5.04296875 -2.3125 7.1875 C-2.94800781 7.90292969 -3.58351563 8.61835937 -4.23828125 9.35546875 C-6 11 -6 11 -8 11 C-6.63629701 8.00779732 -5.05091917 5.70973471 -2.875 3.25 C-2.33617187 2.63640625 -1.79734375 2.0228125 -1.2421875 1.390625 C-0.62730469 0.70226562 -0.62730469 0.70226562 0 0 Z " fill="#244972" transform="translate(710,573)"/>
<path d="M0 0 C4.99911924 0.47610659 7.97832683 2.03162219 12 5 C11.67 5.66 11.34 6.32 11 7 C7.37 5.02 3.74 3.04 0 1 C0 0.67 0 0.34 0 0 Z " fill="#1E4573" transform="translate(684,478)"/>
<path d="M0 0 C0.33 0.99 0.66 1.98 1 3 C-1.64 5.64 -4.28 8.28 -7 11 C-7 7.22089522 -6.00296038 6.53893899 -3.5 3.8125 C-2.8503125 3.09707031 -2.200625 2.38164063 -1.53125 1.64453125 C-1.0259375 1.10183594 -0.520625 0.55914063 0 0 Z " fill="#244974" transform="translate(624,672)"/>
<path d="M0 0 C0.66 0 1.32 0 2 0 C0.32598022 3.95677402 -2.13149285 6.84464213 -5 10 C-5.66 10 -6.32 10 -7 10 C-5.32598022 6.04322598 -2.86850715 3.15535787 0 0 Z " fill="#214772" transform="translate(565,739)"/>
<path d="M0 0 C0.66 0 1.32 0 2 0 C0.32598022 3.95677402 -2.13149285 6.84464213 -5 10 C-5.66 10 -6.32 10 -7 10 C-5.32598022 6.04322598 -2.86850715 3.15535787 0 0 Z " fill="#20436B" transform="translate(640,653)"/>
<path d="M0 0 C7 8.44827586 7 8.44827586 7 12 C6.34 12 5.68 12 5 12 C4.15885829 10.56705502 3.32734313 9.12845595 2.5 7.6875 C1.80390625 6.48673828 1.80390625 6.48673828 1.09375 5.26171875 C0 3 0 3 0 0 Z " fill="#21446D" transform="translate(661,307)"/>
<path d="M0 0 C0.66 0.66 1.32 1.32 2 2 C1.23883449 3.15227823 0.46567307 4.2966386 -0.3125 5.4375 C-0.74175781 6.07558594 -1.17101562 6.71367187 -1.61328125 7.37109375 C-3 9 -3 9 -6 10 C-4.6302836 6.00499382 -2.74277578 3.19990508 0 0 Z " fill="#254E7C" transform="translate(292,239)"/>
<path d="M0 0 C1.11375 1.175625 1.11375 1.175625 2.25 2.375 C4.54433318 4.56504531 6.12158858 5.82731386 9 7 C9 7.66 9 8.32 9 9 C5.45529741 8.70460812 4.21784705 8.22373481 1.6875 5.625 C0 3 0 3 0 0 Z " fill="#22456B" transform="translate(505,792)"/>
<path d="M0 0 C0.33 0.99 0.66 1.98 1 3 C-0.14453125 4.82421875 -0.14453125 4.82421875 -1.8125 6.6875 C-2.35519531 7.31011719 -2.89789062 7.93273437 -3.45703125 8.57421875 C-5 10 -5 10 -7 10 C-5.33248852 6.05860922 -2.77289351 3.2107188 0 0 Z " fill="#20456E" transform="translate(528,781)"/>
<path d="M0 0 C0.33 0.66 0.66 1.32 1 2 C-1.31 4.64 -3.62 7.28 -6 10 C-6.66 9.67 -7.32 9.34 -8 9 C-5.36 6.03 -2.72 3.06 0 0 Z " fill="#1F426A" transform="translate(699,586)"/>
<path d="M0 0 C3.79588866 0.54226981 5.47211993 2.20127563 8 5 C7.67 5.99 7.34 6.98 7 8 C5.83035398 6.8572081 4.66435444 5.71068285 3.5 4.5625 C2.8503125 3.92441406 2.200625 3.28632812 1.53125 2.62890625 C0 1 0 1 0 0 Z " fill="#214978" transform="translate(450,577)"/>
<path d="M0 0 C0.66 0 1.32 0 2 0 C1.71758359 1.46015291 1.42373386 2.91809793 1.125 4.375 C0.96257812 5.18710937 0.80015625 5.99921875 0.6328125 6.8359375 C0 9 0 9 -2 11 C-1.85892253 9.54119891 -1.71197585 8.08296449 -1.5625 6.625 C-1.48128906 5.81289063 -1.40007812 5.00078125 -1.31640625 4.1640625 C-1 2 -1 2 0 0 Z " fill="#1F4671" transform="translate(260,299)"/>
<path d="M0 0 C2.37948772 0.17625835 3.70225849 0.69719773 5.37890625 2.40234375 C6.62115486 3.90649092 7.81376056 5.45129851 9 7 C6 7 6 7 3.8125 5.125 C2 3 2 3 2 1 C1.34 0.67 0.68 0.34 0 0 Z " fill="#27507D" transform="translate(632,272)"/>
<path d="M0 0 C1.45922693 0.11409593 2.91740598 0.24165544 4.375 0.375 C5.59316406 0.47941406 5.59316406 0.47941406 6.8359375 0.5859375 C9 1 9 1 11 3 C3.57142857 3.14285714 3.57142857 3.14285714 0 2 C0 1.34 0 0.68 0 0 Z " fill="#204673" transform="translate(551,228)"/>
<path d="M0 0 C0.66 0 1.32 0 2 0 C0.62845496 2.95409701 -0.98863724 5.44008376 -3 8 C-3.99 7.67 -4.98 7.34 -6 7 C-5.04882866 5.8274869 -4.08882991 4.66212985 -3.125 3.5 C-2.59132813 2.8503125 -2.05765625 2.200625 -1.5078125 1.53125 C-0.76144531 0.77328125 -0.76144531 0.77328125 0 0 Z " fill="#234872" transform="translate(675,613)"/>
<path d="M0 0 C2.12046792 3.53411321 2.53199289 6.94393835 3 11 C2.34 11 1.68 11 1 11 C-0.28317892 7.15046324 -0.06643637 4.05261865 0 0 Z " fill="#224975" transform="translate(423,414)"/>
<path d="M0 0 C-5.625 3 -5.625 3 -9 3 C-9 2.01 -9 1.02 -9 0 C-5.62182575 -0.84454356 -3.32534757 -1.10844919 0 0 Z " fill="#2B5482" transform="translate(677,320)"/>
<path d="M0 0 C-6 4 -6 4 -11 4 C-11 3.34 -11 2.68 -11 2 C-7.17679443 0.57741188 -4.08718695 -0.24042276 0 0 Z " fill="#224A75" transform="translate(425,142)"/>
<path d="M0 0 C-2.64 1.65 -5.28 3.3 -8 5 C-8 4.01 -8 3.02 -8 2 C-3.71900826 -1.23966942 -3.71900826 -1.23966942 0 0 Z " fill="#1F446F" transform="translate(367,171)"/>
<path d="M0 0 C1.98 0 3.96 0 6 0 C6 0.66 6 1.32 6 2 C6.66 2.66 7.32 3.32 8 4 C2.25 3.125 2.25 3.125 0 2 C0 1.34 0 0.68 0 0 Z " fill="#265180" transform="translate(645,162)"/>
<path d="M0 0 C0 3.93169105 -1.39419615 5.16427228 -4 8 C-4.66 8 -5.32 8 -6 8 C-4.55746343 4.63408134 -2.66735273 2.48952921 0 0 Z " fill="#1F4169" transform="translate(548,759)"/>
<path d="M0 0 C-6.75 4 -6.75 4 -9 4 C-8 1 -8 1 -6.1875 -0.25 C-3.66056586 -1.11637742 -2.47778006 -0.88492145 0 0 Z " fill="#234F7F" transform="translate(428,247)"/>
<path d="M0 0 C0.66 0.33 1.32 0.66 2 1 C1.0479279 2.00596297 0.08812654 3.00461563 -0.875 4 C-1.40867187 4.556875 -1.94234375 5.11375 -2.4921875 5.6875 C-4 7 -4 7 -6 7 C-4.60667426 3.63279613 -3.0210714 2.0140476 0 0 Z " fill="#21446C" transform="translate(334,193)"/>
<path d="M0 0 C0.66 0.66 1.32 1.32 2 2 C1.34 2 0.68 2 0 2 C0 1.34 0 0.68 0 0 Z " fill="#305F8F" transform="translate(488,777)"/>
<path d="" fill="#306092" transform="translate(0,0)"/>
<path d="" fill="#31669A" transform="translate(0,0)"/>
<path d="M0 0 C3 1 3 1 3 1 Z " fill="#2F669D" transform="translate(469,231)"/>
<path d="M0 0 C3 1 3 1 3 1 Z " fill="#3069A1" transform="translate(475,230)"/>
<path d="" fill="#305F90" transform="translate(0,0)"/>
<path d="" fill="#306194" transform="translate(0,0)"/>
<path d="" fill="#316396" transform="translate(0,0)"/>
<path d="" fill="#316194" transform="translate(0,0)"/>
<path d="" fill="#2F6294" transform="translate(0,0)"/>
<path d="M0 0 C2 1 2 1 2 1 Z " fill="#306495" transform="translate(709,488)"/>
<path d="M0 0 C2 1 2 1 2 1 Z " fill="#31679F" transform="translate(465,477)"/>
<path d="M0 0 C2 1 2 1 2 1 Z " fill="#3167A0" transform="translate(432,447)"/>
<path d="" fill="#2F679D" transform="translate(0,0)"/>
<path d="" fill="#31679F" transform="translate(0,0)"/>
<path d="" fill="#346799" transform="translate(0,0)"/>
<path d="" fill="#306398" transform="translate(0,0)"/>
<path d="M0 0 C2 1 2 1 2 1 Z " fill="#32669A" transform="translate(694,311)"/>
<path d="M0 0 C2 1 2 1 2 1 Z " fill="#31689E" transform="translate(534,304)"/>
<path d="" fill="#31679E" transform="translate(0,0)"/>
<path d="M0 0 C2 1 2 1 2 1 Z " fill="#31679E" transform="translate(544,229)"/>
<path d="M0 0 C2 1 2 1 2 1 Z " fill="#326498" transform="translate(387,154)"/>
<path d="M0 0 C2 1 2 1 2 1 Z " fill="#30659A" transform="translate(409,144)"/>
<path d="M0 0 C2 1 2 1 2 1 Z " fill="#326498" transform="translate(469,128)"/>
<path d="" fill="#353636" transform="translate(0,0)"/>
<path d="" fill="#2F5B89" transform="translate(0,0)"/>
<path d="" fill="#305D90" transform="translate(0,0)"/>
<path d="" fill="#315F8F" transform="translate(0,0)"/>
<path d="" fill="#32618F" transform="translate(0,0)"/>
<path d="" fill="#335F90" transform="translate(0,0)"/>
<path d="" fill="#306093" transform="translate(0,0)"/>
<path d="" fill="#326392" transform="translate(0,0)"/>
<path d="" fill="#326396" transform="translate(0,0)"/>
<path d="" fill="#305C8F" transform="translate(0,0)"/>
<path d="" fill="#34608E" transform="translate(0,0)"/>
<path d="" fill="#31608F" transform="translate(0,0)"/>
<path d="" fill="#2F5E92" transform="translate(0,0)"/>
<path d="" fill="#305D90" transform="translate(0,0)"/>
<path d="" fill="#316192" transform="translate(0,0)"/>
<path d="" fill="#306498" transform="translate(0,0)"/>
<path d="" fill="#336192" transform="translate(0,0)"/>
<path d="" fill="#335F92" transform="translate(0,0)"/>
<path d="" fill="#316193" transform="translate(0,0)"/>
<path d="" fill="#316293" transform="translate(0,0)"/>
<path d="" fill="#326091" transform="translate(0,0)"/>
<path d="" fill="#326195" transform="translate(0,0)"/>
<path d="" fill="#306295" transform="translate(0,0)"/>
<path d="" fill="#306396" transform="translate(0,0)"/>
<path d="" fill="#316091" transform="translate(0,0)"/>
<path d="" fill="#346495" transform="translate(0,0)"/>
<path d="" fill="#306195" transform="translate(0,0)"/>
<path d="" fill="#326296" transform="translate(0,0)"/>
<path d="" fill="#306090" transform="translate(0,0)"/>
<path d="" fill="#326294" transform="translate(0,0)"/>
<path d="" fill="#30679B" transform="translate(0,0)"/>
<path d="" fill="#316094" transform="translate(0,0)"/>
<path d="" fill="#2E659F" transform="translate(0,0)"/>
<path d="" fill="#35669B" transform="translate(0,0)"/>
<path d="" fill="#316497" transform="translate(0,0)"/>
<path d="" fill="#305F95" transform="translate(0,0)"/>
<path d="" fill="#316193" transform="translate(0,0)"/>
<path d="" fill="#326094" transform="translate(0,0)"/>
<path d="" fill="#326196" transform="translate(0,0)"/>
<path d="" fill="#336296" transform="translate(0,0)"/>
<path d="" fill="#326291" transform="translate(0,0)"/>
<path d="" fill="#316396" transform="translate(0,0)"/>
<path d="" fill="#316191" transform="translate(0,0)"/>
<path d="" fill="#336AA1" transform="translate(0,0)"/>
<path d="" fill="#306395" transform="translate(0,0)"/>
<path d="" fill="#2F6293" transform="translate(0,0)"/>
<path d="" fill="#316194" transform="translate(0,0)"/>
<path d="" fill="#2F6193" transform="translate(0,0)"/>
<path d="" fill="#2F6295" transform="translate(0,0)"/>
<path d="" fill="#2F6195" transform="translate(0,0)"/>
<path d="" fill="#326496" transform="translate(0,0)"/>
<path d="" fill="#306295" transform="translate(0,0)"/>
<path d="" fill="#326491" transform="translate(0,0)"/>
<path d="" fill="#336595" transform="translate(0,0)"/>
<path d="" fill="#2F6296" transform="translate(0,0)"/>
<path d="" fill="#2F6396" transform="translate(0,0)"/>
<path d="" fill="#336395" transform="translate(0,0)"/>
<path d="" fill="#306496" transform="translate(0,0)"/>
<path d="" fill="#2E6195" transform="translate(0,0)"/>
<path d="" fill="#316295" transform="translate(0,0)"/>
<path d="" fill="#316396" transform="translate(0,0)"/>
<path d="" fill="#34689F" transform="translate(0,0)"/>
<path d="" fill="#2D68A0" transform="translate(0,0)"/>
<path d="" fill="#3169A0" transform="translate(0,0)"/>
<path d="" fill="#336A9E" transform="translate(0,0)"/>
<path d="" fill="#2F679D" transform="translate(0,0)"/>
<path d="" fill="#33699C" transform="translate(0,0)"/>
<path d="" fill="#30679A" transform="translate(0,0)"/>
<path d="" fill="#326394" transform="translate(0,0)"/>
<path d="" fill="#33699F" transform="translate(0,0)"/>
<path d="" fill="#326495" transform="translate(0,0)"/>
<path d="" fill="#31699E" transform="translate(0,0)"/>
<path d="" fill="#31669C" transform="translate(0,0)"/>
<path d="" fill="#30679C" transform="translate(0,0)"/>
<path d="" fill="#336496" transform="translate(0,0)"/>
<path d="" fill="#2F679C" transform="translate(0,0)"/>
<path d="" fill="#316596" transform="translate(0,0)"/>
<path d="" fill="#316394" transform="translate(0,0)"/>
<path d="" fill="#34699F" transform="translate(0,0)"/>
<path d="" fill="#2F669C" transform="translate(0,0)"/>
<path d="" fill="#2F649C" transform="translate(0,0)"/>
<path d="" fill="#32679D" transform="translate(0,0)"/>
<path d="" fill="#32669A" transform="translate(0,0)"/>
<path d="" fill="#336495" transform="translate(0,0)"/>
<path d="" fill="#326496" transform="translate(0,0)"/>
<path d="" fill="#2E689F" transform="translate(0,0)"/>
<path d="" fill="#2C649A" transform="translate(0,0)"/>
<path d="" fill="#2F649C" transform="translate(0,0)"/>
<path d="" fill="#346495" transform="translate(0,0)"/>
<path d="" fill="#2E669D" transform="translate(0,0)"/>
<path d="" fill="#326394" transform="translate(0,0)"/>
<path d="" fill="#316392" transform="translate(0,0)"/>
<path d="" fill="#32679D" transform="translate(0,0)"/>
<path d="" fill="#316299" transform="translate(0,0)"/>
<path d="" fill="#326193" transform="translate(0,0)"/>
<path d="" fill="#326397" transform="translate(0,0)"/>
<path d="" fill="#32679C" transform="translate(0,0)"/>
<path d="" fill="#32669E" transform="translate(0,0)"/>
<path d="" fill="#30679E" transform="translate(0,0)"/>
<path d="" fill="#30659E" transform="translate(0,0)"/>
<path d="" fill="#3069A1" transform="translate(0,0)"/>
<path d="" fill="#316396" transform="translate(0,0)"/>
<path d="" fill="#30679E" transform="translate(0,0)"/>
<path d="" fill="#316498" transform="translate(0,0)"/>
<path d="" fill="#30659B" transform="translate(0,0)"/>
<path d="" fill="#32679E" transform="translate(0,0)"/>
<path d="" fill="#30689E" transform="translate(0,0)"/>
<path d="" fill="#3067A0" transform="translate(0,0)"/>
<path d="" fill="#31699F" transform="translate(0,0)"/>
<path d="" fill="#316AA0" transform="translate(0,0)"/>
<path d="" fill="#32679D" transform="translate(0,0)"/>
<path d="" fill="#30669F" transform="translate(0,0)"/>
<path d="" fill="#336294" transform="translate(0,0)"/>
<path d="" fill="#31669B" transform="translate(0,0)"/>
<path d="" fill="#2F669D" transform="translate(0,0)"/>
<path d="" fill="#33679E" transform="translate(0,0)"/>
<path d="" fill="#32689C" transform="translate(0,0)"/>
<path d="" fill="#30679F" transform="translate(0,0)"/>
<path d="" fill="#34659B" transform="translate(0,0)"/>
<path d="" fill="#326394" transform="translate(0,0)"/>
<path d="" fill="#33689A" transform="translate(0,0)"/>
<path d="" fill="#31629D" transform="translate(0,0)"/>
<path d="" fill="#346597" transform="translate(0,0)"/>
<path d="" fill="#356696" transform="translate(0,0)"/>
<path d="" fill="#32679E" transform="translate(0,0)"/>
<path d="" fill="#326AA3" transform="translate(0,0)"/>
<path d="" fill="#30699E" transform="translate(0,0)"/>
<path d="" fill="#326599" transform="translate(0,0)"/>
<path d="" fill="#2F669E" transform="translate(0,0)"/>
<path d="" fill="#346291" transform="translate(0,0)"/>
<path d="" fill="#31669B" transform="translate(0,0)"/>
<path d="" fill="#32659C" transform="translate(0,0)"/>
<path d="" fill="#326397" transform="translate(0,0)"/>
<path d="" fill="#31649B" transform="translate(0,0)"/>
<path d="" fill="#30679F" transform="translate(0,0)"/>
<path d="" fill="#32679E" transform="translate(0,0)"/>
<path d="" fill="#31659B" transform="translate(0,0)"/>
<path d="" fill="#31659A" transform="translate(0,0)"/>
<path d="" fill="#33669B" transform="translate(0,0)"/>
<path d="" fill="#316393" transform="translate(0,0)"/>
<path d="" fill="#2F659F" transform="translate(0,0)"/>
<path d="" fill="#2F679C" transform="translate(0,0)"/>
<path d="" fill="#31689E" transform="translate(0,0)"/>
<path d="" fill="#3067A1" transform="translate(0,0)"/>
<path d="" fill="#2F679C" transform="translate(0,0)"/>
<path d="" fill="#346699" transform="translate(0,0)"/>
<path d="" fill="#346394" transform="translate(0,0)"/>
<path d="" fill="#346698" transform="translate(0,0)"/>
<path d="" fill="#336392" transform="translate(0,0)"/>
<path d="" fill="#31679F" transform="translate(0,0)"/>
<path d="" fill="#32679E" transform="translate(0,0)"/>
<path d="" fill="#32689D" transform="translate(0,0)"/>
<path d="" fill="#316195" transform="translate(0,0)"/>
<path d="" fill="#2C5E94" transform="translate(0,0)"/>
<path d="" fill="#2F6297" transform="translate(0,0)"/>
<path d="" fill="#2C6196" transform="translate(0,0)"/>
<path d="" fill="#316599" transform="translate(0,0)"/>
<path d="" fill="#31649A" transform="translate(0,0)"/>
<path d="" fill="#2F649A" transform="translate(0,0)"/>
<path d="" fill="#2F6399" transform="translate(0,0)"/>
<path d="" fill="#306598" transform="translate(0,0)"/>
<path d="" fill="#2E6295" transform="translate(0,0)"/>
<path d="" fill="#316297" transform="translate(0,0)"/>
<path d="" fill="#306597" transform="translate(0,0)"/>
<path d="" fill="#306399" transform="translate(0,0)"/>
<path d="" fill="#2F6499" transform="translate(0,0)"/>
<path d="" fill="#346898" transform="translate(0,0)"/>
<path d="" fill="#306598" transform="translate(0,0)"/>
<path d="" fill="#30659B" transform="translate(0,0)"/>
<path d="" fill="#2D6295" transform="translate(0,0)"/>
<path d="" fill="#316396" transform="translate(0,0)"/>
<path d="" fill="#316598" transform="translate(0,0)"/>
<path d="" fill="#306195" transform="translate(0,0)"/>
<path d="" fill="#306396" transform="translate(0,0)"/>
<path d="" fill="#316496" transform="translate(0,0)"/>
<path d="" fill="#346595" transform="translate(0,0)"/>
<path d="" fill="#356796" transform="translate(0,0)"/>
<path d="" fill="#336598" transform="translate(0,0)"/>
<path d="" fill="#306297" transform="translate(0,0)"/>
<path d="" fill="#306499" transform="translate(0,0)"/>
<path d="" fill="#316599" transform="translate(0,0)"/>
<path d="" fill="#30659A" transform="translate(0,0)"/>
<path d="" fill="#34679C" transform="translate(0,0)"/>
<path d="" fill="#2E6394" transform="translate(0,0)"/>
<path d="" fill="#32679C" transform="translate(0,0)"/>
<path d="" fill="#356594" transform="translate(0,0)"/>
</svg>
